<svg width="50" height="50" viewBox="0 0 50 50" fill="none" xmlns="http://www.w3.org/2000/svg">
<path d="M18 2C15.25 2 13 4.25 13 7C13 9.75 15.25 12 18 12C18.4062 12 18.7969 11.9375 19.1758 11.8477L20.0117 13.6211C16.4258 15.6953 14 19.5664 14 24C14 25.1445 14.1719 26.2461 14.4727 27.2969L11.1992 28.3086C10.3047 26.9258 8.75781 26 7 26C4.25 26 2 28.25 2 31C2 33.75 4.25 36 7 36C9.75 36 12 33.75 12 31C12 30.7188 11.9688 30.4492 11.9258 30.1797L15.1914 29.1719C16.7188 32.3516 19.5977 34.75 23.0859 35.6289L22.7852 38.0117C20.1367 38.125 18 40.3242 18 43C18 45.75 20.25 48 23 48C25.75 48 28 45.75 28 43C28 40.8711 26.6445 39.0547 24.7617 38.3398L25.0625 35.9531C25.3711 35.9766 25.6836 36 26 36C29.3516 36 32.3828 34.6133 34.5625 32.3906L38.5898 35.6992C38.2266 36.3906 38 37.168 38 38C38 40.75 40.25 43 43 43C45.75 43 48 40.75 48 38C48 35.25 45.75 33 43 33C41.8047 33 40.7188 33.4453 39.8555 34.1523L35.8398 30.8516C37.1953 28.9062 38 26.5469 38 24C38 21.0508 36.9258 18.3516 35.1523 16.2617L38.25 13.1641C39.0391 13.6875 39.9844 14 41 14C43.75 14 46 11.75 46 9C46 6.25 43.75 4 41 4C38.25 4 36 6.25 36 9C36 10.0156 36.3125 10.9609 36.8359 11.75L33.7422 14.8477C31.6484 13.0742 28.9492 12 26 12C24.5273 12 23.125 12.2812 21.8203 12.7695L20.9805 10.9844C22.1992 10.0703 23 8.62891 23 7C23 4.25 20.75 2 18 2ZM18 4C19.668 4 21 5.33203 21 7C21 8.66797 19.668 10 18 10C16.332 10 15 8.66797 15 7C15 5.33203 16.332 4 18 4ZM41 6C42.668 6 44 7.33203 44 9C44 10.668 42.668 12 41 12C39.332 12 38 10.668 38 9C38 7.33203 39.332 6 41 6ZM26 14C31.5352 14 36 18.4648 36 24C36 26.5703 35.0273 28.9062 33.4414 30.6758C32.5781 30.0078 31.5508 29.7188 30.707 29.4531C30.1602 29.2812 29.6758 29.1211 29.3633 28.9648C29.1016 28.832 29.0469 28.7461 29 28.6758V27.6172C29.0234 27.5781 29.0898 27.543 29.1133 27.5039C29.2617 27.2852 29.3906 27.0508 29.5039 26.793C29.668 26.4297 29.7539 26.0156 29.8438 25.6133C29.9609 25.5312 30.1289 25.543 30.2383 25.4336C30.5859 25.082 30.8672 24.5703 30.9844 23.9297V23.9141C31.0547 23.5117 31.0273 23.1406 30.9258 22.8086C30.9023 22.7266 30.7812 22.6602 30.75 22.5781C30.9023 21.9414 31.0078 21.2852 31 20.4922C30.9922 19.7422 30.8438 18.9297 30.3828 18.207C29.9609 17.5391 29.1992 17.0273 28.2734 16.8477C28.0352 16.6406 27.8477 16.3555 27.5703 16.2539C27.082 16.0703 26.5547 16 26 16C24.4375 16 23.1406 16.4453 22.2578 17.3086C21.3789 18.1719 20.9922 19.3789 21 20.6328C21.0039 21.2109 21.0938 21.8984 21.2344 22.5977C21.2109 22.6719 21.0938 22.7344 21.0703 22.8086C20.9766 23.1289 20.9609 23.4844 21.0156 23.8672C21.0859 24.5391 21.3828 25.1016 21.75 25.4492C21.8711 25.5664 22.0352 25.5469 22.1562 25.6289C22.25 26.0273 22.332 26.4375 22.4922 26.793C22.6094 27.0508 22.7383 27.2852 22.8828 27.5039C22.9102 27.543 22.9766 27.5781 23 27.6172V28.6758C22.9531 28.7461 22.8984 28.832 22.6367 28.9648C22.3242 29.1211 21.8398 29.2812 21.293 29.4531C20.4492 29.7188 19.4219 30.0078 18.5586 30.6758C16.9727 28.9062 16 26.5703 16 24C16 18.4648 20.4648 14 26 14ZM26 18C26.3711 18 26.6875 18.0547 26.8711 18.125C27.0508 18.1953 27.0664 18.25 27.043 18.207L27.2812 18.6875L27.8125 18.7539C28.3086 18.8125 28.5078 18.9883 28.6953 19.2812C28.8828 19.5742 28.9961 20.0391 29 20.5078C29.0078 21.375 28.9062 22.1367 28.8086 22.4141L28.5117 23.25L29.0117 23.5C29.0117 23.5312 29.0195 23.5391 29.0156 23.5781C28.9648 23.8477 28.8789 23.9531 28.832 24H28.0938L28.0039 24.9023C27.9805 25.1445 27.8438 25.6094 27.6836 25.9648C27.6016 26.1406 27.5156 26.2969 27.457 26.3867C27.4414 26.4102 27.4336 26.4102 27.418 26.4219L27 26.6328V29.1992L27.0742 29.3867C27.3594 30.0625 27.9219 30.4766 28.457 30.75C28.9961 31.0195 29.5586 31.1875 30.1055 31.3594C30.7891 31.5742 31.4023 31.8047 31.8867 32.0781C30.2344 33.2812 28.207 34 26 34C23.793 34 21.7656 33.2812 20.1133 32.0781C20.5977 31.8047 21.2109 31.5742 21.8945 31.3594C22.4414 31.1875 23.0039 31.0195 23.543 30.75C24.0781 30.4766 24.6406 30.0625 24.9258 29.3867L25 29.1992V26.6328L24.582 26.4219C24.5664 26.4102 24.5586 26.4102 24.543 26.3867C24.4844 26.2969 24.3984 26.1406 24.3164 25.9648C24.1562 25.6094 24.0195 25.1445 23.9961 24.9023L23.9062 24H23.1367C23.1328 23.9961 23.1289 24 23.1211 23.9961C23.082 23.957 23.0195 23.8984 22.9961 23.6602L22.9922 23.625L22.9844 23.5859C22.9805 23.543 22.9883 23.5352 22.9883 23.5L23.4258 23.2812L23.2148 22.4922C23.0469 21.8633 23.0039 21.2383 23 20.6172C22.9922 19.7656 23.2266 19.1641 23.6602 18.7383C24.0938 18.3125 24.8047 18 26 18ZM7 28C8.66797 28 10 29.332 10 31C10 32.668 8.66797 34 7 34C5.33203 34 4 32.668 4 31C4 29.332 5.33203 28 7 28ZM43 35C44.668 35 46 36.332 46 38C46 39.668 44.668 41 43 41C41.332 41 40 39.668 40 38C40 36.332 41.332 35 43 35ZM23 40C24.668 40 26 41.332 26 43C26 44.668 24.668 46 23 46C21.332 46 20 44.668 20 43C20 41.332 21.332 40 23 40Z" fill="#E84F1C"/>
</svg>
