<svg width="50" height="50" viewBox="0 0 50 50" fill="none" xmlns="http://www.w3.org/2000/svg">
<path d="M6 2C2.69922 2 0 4.69922 0 8V37C0 40.3008 2.69922 43 6 43H50V7H11.7969C11.3008 4.19141 8.94922 2 6 2ZM6 4C8.21875 4 10 5.78125 10 8V32.5469C8.9375 31.5898 7.53516 31 6 31C4.46484 31 3.0625 31.5898 2 32.5469V8C2 5.78125 3.78125 4 6 4ZM12 9H48V41H6C3.78125 41 2 39.2188 2 37C2 34.7812 3.78125 33 6 33C8.21875 33 10 34.7812 10 37H12V9ZM35 15L37.793 17.793L32.5 23.0859L27.0469 17.6289L18.3438 25.25L19.6562 26.75L26.9531 20.3711L32.5 25.9141L39.207 19.207L42 22V15H35ZM17 32V34H42V32H17Z" fill="#E84F1C"/>
</svg>
