<svg width="50" height="50" viewBox="0 0 50 50" fill="none" xmlns="http://www.w3.org/2000/svg">
<path d="M28.9922 8C23.9258 8 19.6289 10.6719 17.4883 15.0625C16.3867 14.3711 15.0625 14 13.6406 14C10.0039 14 7.22656 16.7656 7.00391 20.5117C2.53906 22.0195 0 25.5586 0 30.3281C0 35.6602 4.33984 40 9.66797 40H11V38H9.66797C5.44141 38 2 34.5586 2 30.3281C2 24.7734 5.92578 22.8594 8.26562 22.2148L9.02734 22.0039L8.98828 21C8.98828 18.1484 10.9883 16 13.6406 16C15.0469 16 16.3047 16.4844 17.1836 17.3633L18.2852 18.4688L18.8281 17.0039C20.4297 12.6836 24.3203 10 28.9922 10C35.1641 10 40 14.832 40 21C40 21.4141 39.9688 21.8555 39.9023 22.3789L39.8242 23.5H40.9531C44.6406 23.5 48 27.1211 48 31.0977C48 33.9531 46.2852 36.4727 43.6328 37.5195C42.8242 37.8398 41.9727 38 41.0977 38H39V40H41.0977C42.2266 40 43.3242 39.793 44.3672 39.3789C47.7891 38.0312 50 34.7812 50 31.0977C50 26.3711 46.3828 22.1797 41.9844 21.5781C41.9961 21.3789 42 21.1875 42 21C42 13.7109 36.2852 8 28.9922 8ZM24.9844 24.9883C24.4336 24.9961 23.9922 25.4492 24 26V42.2031C23.2031 42.3984 22.4844 42.7305 22.0039 43.2734C21.3203 44.043 21 45.0273 21 46C21 46.9727 21.3203 47.957 22.0039 48.7266C22.6836 49.4961 23.75 50 25 50C26.25 50 27.3164 49.4961 27.9961 48.7266C28.6797 47.957 29 46.9727 29 46C29 45.0273 28.6797 44.043 27.9961 43.2734C27.5156 42.7305 26.7969 42.3984 26 42.2031V26C26.0039 25.7305 25.8984 25.4688 25.707 25.2773C25.5156 25.0859 25.2539 24.9805 24.9844 24.9883ZM18.9883 24.9883C18.6953 24.9961 18.418 25.1289 18.2344 25.3594L14.8555 29.4102C13.6562 30.8516 13 32.6641 13 34.5312V42.2031C12.2031 42.3984 11.4844 42.7305 11.0039 43.2734C10.3203 44.043 10 45.0273 10 46C10 46.9727 10.3203 47.957 11.0039 48.7266C11.6836 49.4961 12.75 50 14 50C15.25 50 16.3164 49.4961 16.9961 48.7266C17.6797 47.957 18 46.9727 18 46C18 45.0273 17.6797 44.043 16.9961 43.2734C16.5156 42.7305 15.7969 42.3984 15 42.2031V34.5312C15 33.1289 15.4922 31.7734 16.3906 30.6914L19.7695 26.6406C20.0234 26.3398 20.082 25.918 19.9141 25.5625C19.7461 25.2031 19.3828 24.9805 18.9883 24.9883ZM30.9805 24.9883C30.5898 24.9922 30.2383 25.2227 30.0781 25.5742C29.918 25.9297 29.9805 26.3438 30.2305 26.6406L33.6094 30.6914C34.5078 31.7734 35 33.1289 35 34.5312V42.2031C34.2031 42.3984 33.4844 42.7305 33.0039 43.2734C32.3203 44.043 32 45.0273 32 46C32 46.9727 32.3203 47.957 33.0039 48.7266C33.6836 49.4961 34.75 50 36 50C37.25 50 38.3164 49.4961 38.9961 48.7266C39.6797 47.957 40 46.9727 40 46C40 45.0273 39.6797 44.043 38.9961 43.2734C38.5156 42.7305 37.7969 42.3984 37 42.2031V34.5312C37 32.6602 36.3438 30.8477 35.1445 29.4102L31.7656 25.3594C31.5742 25.1211 31.2852 24.9844 30.9805 24.9883ZM13.9727 44.0117C13.9922 44.0117 14.0117 44.0117 14.0312 44.0117C14.7539 44.0234 15.1914 44.2539 15.5039 44.6016C15.8203 44.957 16 45.4727 16 46C16 46.5273 15.8203 47.043 15.5039 47.3984C15.1836 47.7539 14.75 48 14 48C13.25 48 12.8164 47.7539 12.4961 47.3984C12.1797 47.043 12 46.5273 12 46C12 45.4727 12.1797 44.957 12.4961 44.6016C12.8086 44.2539 13.2461 44.0195 13.9727 44.0117ZM24.9727 44.0117C24.9922 44.0117 25.0117 44.0117 25.0312 44.0117C25.7539 44.0234 26.1914 44.2539 26.5039 44.6016C26.8203 44.957 27 45.4727 27 46C27 46.5273 26.8203 47.043 26.5039 47.3984C26.1836 47.7539 25.75 48 25 48C24.25 48 23.8164 47.7539 23.4961 47.3984C23.1797 47.043 23 46.5273 23 46C23 45.4727 23.1797 44.957 23.4961 44.6016C23.8086 44.2539 24.2461 44.0195 24.9727 44.0117ZM35.9727 44.0117C35.9922 44.0117 36.0117 44.0117 36.0312 44.0117C36.7539 44.0234 37.1914 44.2539 37.5039 44.6016C37.8203 44.957 38 45.4727 38 46C38 46.5273 37.8203 47.043 37.5039 47.3984C37.1836 47.7539 36.75 48 36 48C35.25 48 34.8164 47.7539 34.4961 47.3984C34.1797 47.043 34 46.5273 34 46C34 45.4727 34.1797 44.957 34.4961 44.6016C34.8086 44.2539 35.2461 44.0195 35.9727 44.0117Z" fill="#E84F1C"/>
</svg>
