<svg width="770" height="608" viewBox="0 0 770 608" fill="none" xmlns="http://www.w3.org/2000/svg">
<g clip-path="url(#clip0)">
<path d="M396.883 123.393L405.023 116.607C405.235 116.431 405.41 116.214 405.538 115.97C405.666 115.726 405.745 115.459 405.77 115.184C405.795 114.91 405.766 114.633 405.684 114.369C405.602 114.106 405.469 113.862 405.292 113.65C405.116 113.438 404.899 113.263 404.655 113.135C404.411 113.006 404.144 112.928 403.87 112.903C403.595 112.878 403.318 112.907 403.055 112.989C402.792 113.071 402.548 113.204 402.336 113.38L387.806 125.494L402.336 137.608C402.548 137.785 402.792 137.918 403.055 138C403.318 138.082 403.595 138.111 403.87 138.086C404.144 138.061 404.411 137.982 404.655 137.854C404.899 137.726 405.116 137.551 405.292 137.339C405.469 137.127 405.602 136.883 405.684 136.619C405.766 136.356 405.795 136.079 405.77 135.804C405.745 135.53 405.666 135.263 405.538 135.019C405.41 134.774 405.235 134.558 405.023 134.381L396.883 127.594H474.296V183.714H478.495V123.393H396.883Z" fill="#7F7F7F"/>
<path d="M206.439 292.991C206.227 292.814 205.983 292.681 205.72 292.599C205.456 292.517 205.18 292.488 204.905 292.513C204.631 292.538 204.364 292.617 204.12 292.745C203.875 292.873 203.659 293.048 203.483 293.26C203.306 293.472 203.173 293.716 203.091 293.98C203.009 294.243 202.98 294.52 203.005 294.795C203.03 295.069 203.109 295.336 203.237 295.58C203.365 295.825 203.54 296.041 203.752 296.218L211.892 303.005H5.31345V127.594H41.0003V123.393H1.11462V307.206H211.892L203.752 313.992C203.355 314.357 203.114 314.861 203.079 315.399C203.043 315.937 203.216 316.468 203.562 316.882C203.908 317.296 204.399 317.561 204.935 317.622C205.471 317.683 206.009 317.536 206.439 317.21L220.969 305.096L206.439 292.991Z" fill="#7F7F7F"/>
<path d="M334.304 464.2C334.092 464.023 333.847 463.89 333.584 463.808C333.321 463.726 333.044 463.697 332.77 463.722C332.495 463.747 332.228 463.826 331.984 463.954C331.74 464.082 331.524 464.257 331.347 464.469C331.171 464.681 331.038 464.925 330.956 465.189C330.874 465.452 330.845 465.729 330.87 466.004C330.895 466.278 330.973 466.545 331.102 466.789C331.23 467.034 331.405 467.25 331.616 467.427L339.757 474.214H289.067V423.704H223.625V427.904H284.864V478.409H339.75L331.61 485.196C331.398 485.373 331.223 485.589 331.095 485.834C330.967 486.078 330.888 486.345 330.863 486.62C330.838 486.894 330.868 487.171 330.95 487.434C331.031 487.698 331.164 487.942 331.341 488.154C331.517 488.366 331.734 488.541 331.978 488.669C332.222 488.798 332.489 488.876 332.763 488.901C333.038 488.926 333.315 488.897 333.578 488.815C333.841 488.733 334.086 488.6 334.297 488.423L348.828 476.309L334.304 464.2Z" fill="#7F7F7F"/>
<path d="M743.41 298.52L751.55 291.734C751.761 291.558 751.936 291.341 752.065 291.097C752.193 290.853 752.272 290.586 752.297 290.311C752.322 290.036 752.292 289.759 752.21 289.496C752.128 289.233 751.995 288.988 751.819 288.776C751.642 288.564 751.426 288.389 751.182 288.261C750.938 288.133 750.671 288.054 750.396 288.029C750.122 288.004 749.845 288.033 749.582 288.115C749.319 288.197 749.074 288.33 748.862 288.507L734.332 300.621L748.862 312.735C749.074 312.911 749.319 313.045 749.582 313.127C749.845 313.209 750.122 313.238 750.396 313.213C750.671 313.188 750.938 313.109 751.182 312.981C751.426 312.853 751.642 312.678 751.819 312.466C751.995 312.254 752.128 312.009 752.21 311.746C752.292 311.483 752.322 311.206 752.297 310.931C752.272 310.656 752.193 310.389 752.065 310.145C751.936 309.901 751.761 309.684 751.55 309.508L743.41 302.72H765.801V473.205H683.349V477.405H770V298.526L743.41 298.52Z" fill="#7F7F7F"/>
<path d="M360.141 86.3774H279.331C279.02 86.3772 278.712 86.4382 278.425 86.5571C278.138 86.676 277.877 86.8504 277.657 87.0704C277.438 87.2903 277.264 87.5514 277.145 87.8387C277.026 88.1261 276.966 88.434 276.966 88.7449V141.906C276.967 142.532 277.216 143.132 277.659 143.574C278.101 144.017 278.701 144.266 279.326 144.267H300.785L284.268 160.791C283.826 161.234 283.578 161.834 283.578 162.46C283.578 163.086 283.826 163.687 284.268 164.13L291.431 171.296C291.874 171.737 292.474 171.984 293.099 171.984C293.724 171.984 294.323 171.737 294.766 171.296L321.788 144.263H360.141C360.766 144.263 361.366 144.014 361.809 143.571C362.251 143.128 362.5 142.528 362.501 141.902V88.7449C362.501 88.4344 362.441 88.1268 362.322 87.8397C362.204 87.5527 362.03 87.2917 361.811 87.0719C361.592 86.852 361.332 86.6775 361.045 86.5583C360.758 86.4392 360.451 86.3777 360.141 86.3774ZM333.692 121.809L331.055 128.265L293.168 166.254L289.312 162.394L327.24 124.447L333.692 121.809ZM334.747 131.313C334.971 131.091 335.149 130.827 335.269 130.536L340.189 118.46C340.399 118.019 340.468 117.525 340.385 117.044C340.303 116.563 340.074 116.12 339.729 115.775C339.384 115.43 338.942 115.2 338.461 115.117C337.981 115.034 337.486 115.101 337.046 115.311L325.013 120.278C324.726 120.399 324.466 120.574 324.247 120.795L305.522 139.539H281.693V91.106H357.785V139.543H326.51L334.747 131.313Z" fill="#3C3C3B"/>
<path d="M346.307 96.35C344.637 96.35 343.004 96.8454 341.616 97.7737C340.227 98.7019 339.145 100.021 338.506 101.565C337.867 103.108 337.699 104.807 338.025 106.446C338.351 108.084 339.155 109.59 340.336 110.771C341.517 111.952 343.022 112.757 344.66 113.083C346.298 113.409 347.996 113.242 349.539 112.602C351.081 111.963 352.4 110.88 353.328 109.491C354.256 108.102 354.751 106.468 354.751 104.798C354.747 102.558 353.856 100.412 352.274 98.8286C350.691 97.2452 348.545 96.3539 346.307 96.35ZM350.035 104.798C350.035 105.535 349.817 106.256 349.407 106.87C348.997 107.483 348.415 107.961 347.734 108.243C347.053 108.526 346.303 108.6 345.58 108.456C344.857 108.312 344.192 107.956 343.671 107.435C343.15 106.913 342.794 106.249 342.651 105.525C342.507 104.802 342.581 104.052 342.863 103.37C343.145 102.689 343.623 102.106 344.236 101.697C344.849 101.287 345.57 101.068 346.307 101.068C347.297 101.069 348.245 101.463 348.944 102.164C349.643 102.864 350.036 103.814 350.035 104.804V104.798Z" fill="#3C3C3B"/>
<path d="M322.809 112.776L312.043 96.3162L312.022 96.2824C311.797 95.9759 311.503 95.7268 311.163 95.555C310.824 95.3833 310.449 95.2938 310.069 95.2938C309.689 95.2938 309.314 95.3833 308.975 95.555C308.636 95.7268 308.342 95.9759 308.116 96.2824L308.104 96.2972L285.643 130.648C285.41 131.004 285.278 131.416 285.261 131.841C285.243 132.266 285.341 132.688 285.544 133.062C285.746 133.436 286.046 133.748 286.411 133.966C286.776 134.184 287.193 134.299 287.618 134.299H302.136C302.762 134.299 303.362 134.05 303.805 133.607C304.247 133.165 304.496 132.564 304.496 131.938C304.496 131.312 304.247 130.711 303.805 130.268C303.362 129.826 302.762 129.577 302.136 129.577H291.984L310.063 101.911L318.849 115.347C319.178 115.874 319.702 116.251 320.307 116.394C320.912 116.538 321.549 116.437 322.08 116.113C322.611 115.789 322.993 115.269 323.142 114.665C323.292 114.061 323.197 113.423 322.879 112.888C322.864 112.855 322.837 112.814 322.809 112.776Z" fill="#3C3C3B"/>
<path d="M591.16 458.332L603.404 470.199L600.516 486.945C600.458 487.26 600.463 487.584 600.53 487.898C600.598 488.211 600.728 488.508 600.911 488.771C601.095 489.038 601.33 489.266 601.603 489.441C601.875 489.616 602.18 489.735 602.499 489.791C603.062 489.891 603.643 489.793 604.143 489.515L619.229 481.61L634.369 489.519C634.945 489.821 635.617 489.884 636.239 489.694C636.862 489.503 637.383 489.074 637.692 488.501C637.945 488.022 638.033 487.472 637.941 486.938L635.053 470.189L647.297 458.335C647.528 458.111 647.713 457.843 647.841 457.548C647.969 457.252 648.037 456.934 648.042 456.612C648.046 456.29 647.987 455.97 647.867 455.671C647.748 455.372 647.57 455.099 647.345 454.869C646.966 454.485 646.471 454.234 645.937 454.155L629.003 451.718L621.433 436.489C621.228 436.079 620.913 435.735 620.524 435.494C620.135 435.253 619.686 435.126 619.229 435.126C618.771 435.126 618.322 435.253 617.933 435.494C617.544 435.735 617.229 436.079 617.025 436.489L609.425 451.72L592.537 454.157C592.216 454.203 591.908 454.311 591.63 454.477C591.352 454.642 591.109 454.861 590.916 455.12C590.723 455.377 590.583 455.669 590.504 455.98C590.425 456.291 590.408 456.615 590.455 456.932C590.531 457.464 590.778 457.956 591.16 458.332ZM630.677 467.589C630.391 467.866 630.177 468.208 630.054 468.587C629.931 468.965 629.902 469.368 629.969 469.76L632.235 482.892L620.371 476.681C620.017 476.496 619.624 476.4 619.224 476.4C618.825 476.4 618.432 476.496 618.078 476.681L606.199 482.881L608.464 469.76C608.535 469.367 608.508 468.962 608.386 468.582C608.264 468.201 608.05 467.857 607.764 467.578L598.161 458.286L611.42 456.362C611.814 456.305 612.188 456.154 612.511 455.921C612.834 455.689 613.095 455.381 613.273 455.025L619.205 443.059L625.139 455.025C625.317 455.381 625.579 455.689 625.902 455.922C626.224 456.155 626.599 456.306 626.993 456.362L640.265 458.275L630.677 467.589Z" fill="#3C3C3B"/>
<path d="M662.228 484.626V484.474L662.201 484.381C662.159 484.24 662.104 484.103 662.036 483.973L661.947 483.813C661.876 483.701 661.796 483.595 661.709 483.496L661.609 483.382C661.474 483.245 661.323 483.123 661.16 483.021L645.8 473.568C645.246 473.224 644.579 473.112 643.944 473.257C643.309 473.401 642.756 473.791 642.405 474.341C642.234 474.614 642.118 474.918 642.065 475.236C642.011 475.553 642.021 475.879 642.094 476.193C642.166 476.507 642.3 476.803 642.488 477.065C642.675 477.327 642.913 477.55 643.187 477.72L654.704 484.822L608.437 507.815L583.571 485.686L595.055 480.265C595.347 480.127 595.608 479.934 595.824 479.695C596.041 479.457 596.208 479.178 596.316 478.874C596.424 478.571 596.471 478.249 596.454 477.927C596.437 477.605 596.357 477.29 596.218 477C595.935 476.414 595.432 475.964 594.819 475.747C594.206 475.531 593.532 475.565 592.944 475.842L578.11 482.852C577.934 482.94 577.769 483.049 577.618 483.177L577.515 483.266C577.386 483.384 577.271 483.516 577.171 483.658L577.05 483.827V483.931C576.987 484.052 576.933 484.179 576.89 484.309L576.858 484.408V484.577C576.843 484.726 576.843 484.876 576.858 485.025V521.139C576.856 521.494 576.932 521.845 577.08 522.168C577.229 522.491 577.446 522.777 577.717 523.006L606.581 548.486L606.605 548.505C606.803 548.664 607.026 548.79 607.263 548.881L607.375 548.923H607.468C607.674 548.982 607.887 549.015 608.101 549.02C608.177 549.02 608.255 549.02 608.331 549.02C608.407 549.02 608.481 549.02 608.555 549.02H608.718L609.14 548.875L660.917 523.392C661.323 523.178 661.661 522.855 661.893 522.459C662.125 522.063 662.242 521.61 662.23 521.151V485.107C662.245 484.947 662.244 484.786 662.228 484.626ZM657.309 489.027V519.618L610.502 542.733V512.281L657.309 489.027ZM605.589 511.859V541.301L581.638 520.03V490.541L605.589 511.859Z" fill="#3C3C3B"/>
<path d="M680.763 333.626H670.176V290.477C670.176 290.137 670.109 289.8 669.979 289.486C669.849 289.172 669.658 288.886 669.417 288.646C669.177 288.405 668.891 288.215 668.577 288.085C668.263 287.955 667.926 287.888 667.586 287.888H522.843C522.666 287.852 522.486 287.833 522.305 287.833H507.053V268.404C507.052 267.666 506.759 266.959 506.238 266.438C505.717 265.916 505.01 265.623 504.273 265.622H461.273C460.907 265.623 460.543 265.695 460.205 265.837C459.866 265.978 459.559 266.185 459.301 266.445C459.042 266.705 458.838 267.014 458.699 267.354C458.561 267.694 458.491 268.058 458.493 268.425V287.854H443.243C442.506 287.855 441.798 288.148 441.277 288.67C440.756 289.192 440.463 289.9 440.463 290.638V333.647H430.752C430.015 333.648 429.309 333.942 428.788 334.463C428.266 334.984 427.973 335.691 427.972 336.429V347.176H407.495C406.884 343.276 404.825 339.751 401.729 337.303C398.633 334.856 394.728 333.667 390.794 333.973C386.861 334.28 383.187 336.06 380.508 338.958C377.828 341.855 376.34 345.657 376.34 349.605C376.34 353.552 377.828 357.354 380.508 360.252C383.187 363.15 386.861 364.93 390.794 365.236C394.728 365.543 398.633 364.354 401.729 361.906C404.825 359.459 406.884 355.933 407.495 352.034H427.972V362.783C427.973 363.521 428.266 364.227 428.788 364.749C429.309 365.27 430.015 365.563 430.752 365.565H457.106C457.843 365.564 458.55 365.271 459.071 364.749C459.593 364.228 459.886 363.521 459.886 362.783V336.407C459.886 335.67 459.593 334.963 459.071 334.441C458.55 333.92 457.843 333.627 457.106 333.626H446.017V293.398H458.487V311.43C458.487 312.167 458.78 312.874 459.302 313.396C459.823 313.917 460.53 314.211 461.267 314.211H480.688V333.626H469.597C468.86 333.627 468.153 333.92 467.632 334.441C467.111 334.963 466.817 335.67 466.817 336.407V362.773C466.817 363.51 467.111 364.217 467.632 364.739C468.153 365.26 468.86 365.553 469.597 365.554H495.951C496.688 365.553 497.395 365.26 497.916 364.738C498.437 364.217 498.73 363.51 498.731 362.773V336.407C498.73 335.67 498.437 334.963 497.916 334.442C497.395 333.921 496.688 333.627 495.951 333.626H486.24V314.211H504.266C505.004 314.211 505.71 313.917 506.232 313.396C506.753 312.874 507.046 312.167 507.047 311.43V293.398H519.523V333.626H508.434C507.697 333.627 506.99 333.921 506.469 334.442C505.948 334.963 505.655 335.67 505.653 336.407V362.773C505.655 363.51 505.948 364.217 506.469 364.738C506.99 365.26 507.697 365.553 508.434 365.554H534.788C535.525 365.553 536.231 365.26 536.752 364.738C537.273 364.217 537.567 363.51 537.568 362.773V336.407C537.567 335.67 537.273 334.963 536.752 334.442C536.231 333.921 535.525 333.627 534.788 333.626H525.077V293.077H664.989V333.626H654.417C653.68 333.627 652.973 333.92 652.451 334.441C651.93 334.963 651.636 335.67 651.635 336.407V347.155H637.529C636.951 343.462 635.072 340.097 632.233 337.667C629.394 335.237 625.78 333.901 622.044 333.901C618.307 333.901 614.693 335.237 611.854 337.667C609.015 340.097 607.137 343.462 606.558 347.155H594.392C593.781 343.255 591.722 339.728 588.626 337.281C585.529 334.833 581.624 333.643 577.69 333.95C573.755 334.257 570.081 336.037 567.401 338.935C564.721 341.833 563.233 345.636 563.233 349.584C563.233 353.532 564.721 357.334 567.401 360.232C570.081 363.131 573.755 364.911 577.69 365.217C581.624 365.524 585.529 364.335 588.626 361.887C591.722 359.439 593.781 355.913 594.392 352.012H606.558C607.14 355.703 609.019 359.065 611.858 361.493C614.697 363.921 618.309 365.255 622.044 365.255C625.778 365.255 629.39 363.921 632.229 361.493C635.068 359.065 636.948 355.703 637.529 352.012H651.624V362.762C651.625 363.5 651.919 364.207 652.441 364.728C652.962 365.25 653.669 365.543 654.407 365.543H680.763C681.5 365.543 682.207 365.25 682.729 364.728C683.25 364.207 683.544 363.5 683.545 362.762V336.407C683.544 335.67 683.25 334.963 682.729 334.441C682.207 333.92 681.5 333.627 680.763 333.626ZM392.017 360.403C389.879 360.403 387.789 359.769 386.011 358.58C384.233 357.392 382.848 355.703 382.029 353.727C381.211 351.75 380.997 349.576 381.414 347.478C381.831 345.38 382.861 343.453 384.373 341.94C385.885 340.428 387.811 339.398 389.908 338.981C392.005 338.563 394.179 338.777 396.154 339.596C398.129 340.415 399.818 341.801 401.006 343.579C402.194 345.358 402.828 347.449 402.828 349.588C402.825 352.455 401.685 355.205 399.658 357.232C397.631 359.26 394.883 360.4 392.017 360.403ZM532.014 339.189V359.991H511.22V339.189H532.014ZM464.062 308.648V271.196H501.499V308.648H464.062ZM472.384 359.991V339.189H493.177V359.991H472.384ZM433.541 359.991V339.189H454.334V359.991H433.541ZM578.914 360.414C576.776 360.414 574.686 359.78 572.908 358.592C571.13 357.404 569.744 355.715 568.925 353.739C568.107 351.763 567.892 349.588 568.309 347.49C568.726 345.392 569.755 343.465 571.267 341.952C572.779 340.439 574.705 339.409 576.802 338.991C578.9 338.574 581.073 338.788 583.049 339.606C585.024 340.425 586.713 341.811 587.901 343.59C589.089 345.368 589.723 347.459 589.723 349.598C589.717 352.464 588.576 355.211 586.55 357.236C584.523 359.261 581.777 360.4 578.912 360.403L578.914 360.414ZM622.049 360.414C619.911 360.414 617.821 359.779 616.043 358.591C614.265 357.403 612.879 355.713 612.061 353.737C611.243 351.761 611.029 349.586 611.446 347.489C611.863 345.391 612.893 343.464 614.405 341.951C615.917 340.438 617.843 339.408 619.94 338.991C622.037 338.574 624.211 338.788 626.186 339.607C628.161 340.425 629.85 341.811 631.038 343.59C632.225 345.368 632.859 347.459 632.859 349.598C632.854 352.465 631.712 355.211 629.686 357.237C627.659 359.262 624.912 360.401 622.047 360.403L622.049 360.414ZM677.991 339.199V360.002H657.2V339.199H677.991Z" fill="#3C3C3B"/>
<path d="M336.411 287.895H330.863C330.176 287.895 329.518 288.167 329.033 288.653C328.547 289.138 328.275 289.797 328.275 290.484C328.275 291.17 328.547 291.829 329.033 292.315C329.518 292.8 330.176 293.073 330.863 293.073H336.411C337.097 293.073 337.755 292.8 338.241 292.315C338.726 291.829 338.999 291.17 338.999 290.484C338.999 289.797 338.726 289.138 338.241 288.653C337.755 288.167 337.097 287.895 336.411 287.895Z" fill="#3C3C3B"/>
<path d="M396.366 293.149L408.358 293.164C409.045 293.164 409.703 292.891 410.189 292.405C410.674 291.92 410.947 291.261 410.947 290.575C410.947 289.888 410.674 289.229 410.189 288.744C409.703 288.258 409.045 287.985 408.358 287.985L396.366 287.971C395.679 287.971 395.021 288.243 394.536 288.729C394.05 289.215 393.778 289.873 393.778 290.56C393.778 291.247 394.05 291.905 394.536 292.391C395.021 292.876 395.679 293.149 396.366 293.149Z" fill="#3C3C3B"/>
<path d="M420.351 293.179L432.344 293.193C433.03 293.193 433.689 292.921 434.174 292.435C434.659 291.949 434.932 291.291 434.932 290.604C434.932 289.917 434.659 289.259 434.174 288.773C433.689 288.288 433.03 288.015 432.344 288.015L420.351 288C419.665 288 419.006 288.273 418.521 288.759C418.036 289.244 417.763 289.903 417.763 290.589C417.763 291.276 418.036 291.935 418.521 292.42C419.006 292.906 419.665 293.179 420.351 293.179Z" fill="#3C3C3B"/>
<path d="M384.377 293.134C385.064 293.134 385.722 292.861 386.207 292.376C386.693 291.89 386.965 291.232 386.965 290.545C386.965 289.858 386.693 289.2 386.207 288.714C385.722 288.229 385.064 287.956 384.377 287.956L372.385 287.939C371.711 287.958 371.071 288.24 370.601 288.723C370.131 289.207 369.868 289.855 369.868 290.529C369.868 291.204 370.131 291.852 370.601 292.335C371.071 292.819 371.711 293.1 372.385 293.12L384.377 293.134Z" fill="#3C3C3B"/>
<path d="M360.394 287.924L348.403 287.909C347.717 287.909 347.059 288.182 346.573 288.668C346.088 289.153 345.815 289.812 345.815 290.499C345.815 291.185 346.088 291.844 346.573 292.329C347.059 292.815 347.717 293.088 348.403 293.088L360.396 293.103C361.082 293.103 361.741 292.83 362.226 292.344C362.711 291.859 362.984 291.2 362.984 290.513C362.984 289.827 362.711 289.168 362.226 288.683C361.741 288.197 361.082 287.924 360.396 287.924H360.394Z" fill="#3C3C3B"/>
<path d="M734.484 179.338H388.12V36.5362H38.1442V214.457H220.773V430.759H348.821V565.164H688.303V430.759H734.484V179.338ZM45.955 206.641V44.3503H380.309V179.338H220.773V206.641H45.955ZM680.493 557.35H356.632V397.159H680.493V557.35ZM726.673 422.945H688.303V389.345H348.821V422.945H228.584V187.152H726.673V422.945Z" fill="#EE4E1E"/>
<path d="M4.97779 20.0632C3.63276 20.0636 2.31287 19.6986 1.15895 19.0073L2.60289 15.8943C3.14736 16.2571 3.77978 16.4658 4.43315 16.4983C5.11149 16.4983 5.6111 16.1681 5.93198 15.5078L0 0.28299H4.55348L8.005 10.6124L11.3151 0.28299H15.7841L9.9577 15.8204C9.37083 17.3818 8.71079 18.4807 7.97756 19.1171C7.24433 19.7535 6.24441 20.0688 4.97779 20.0632Z" fill="#7F7F7F"/>
<path d="M18.387 19.9787V0.282987H22.6872V2.46249C23.8876 0.820822 25.4625 -1.0159e-05 27.4116 -1.0159e-05C28.3245 -0.00666608 29.2285 0.178865 30.065 0.54453C30.9015 0.910195 31.6517 1.44782 32.267 2.12247C33.6265 3.53745 34.3055 5.46211 34.3041 7.89645C34.3027 10.3308 33.6342 12.2407 32.2987 13.6261C31.6797 14.3015 30.9252 14.8388 30.0846 15.2027C29.2439 15.5666 28.336 15.749 27.4201 15.738C25.5328 15.738 23.958 14.9833 22.6956 13.474V19.9787H18.387ZM23.6899 10.9102C24.0138 11.2855 24.4161 11.5852 24.8684 11.7881C25.3207 11.991 25.812 12.0921 26.3076 12.0844C26.8049 12.0913 27.2978 11.9898 27.752 11.787C28.2062 11.5843 28.6109 11.285 28.9379 10.9102C29.6557 10.1273 30.0138 9.10376 30.0124 7.83943C30.0124 6.61311 29.6543 5.60854 28.9379 4.82572C28.6109 4.45083 28.2062 4.15162 27.752 3.94885C27.2978 3.74608 26.8049 3.64462 26.3076 3.65149C25.812 3.64375 25.3207 3.74488 24.8684 3.94777C24.4161 4.15066 24.0138 4.45035 23.6899 4.82572C22.9862 5.60713 22.6344 6.63071 22.6344 7.89645C22.6316 9.12136 22.9834 10.1259 23.6899 10.9102Z" fill="#7F7F7F"/>
<path d="M50.8461 13.4994C49.2713 15.027 47.3151 15.7908 44.9775 15.7908C42.6399 15.7908 40.6928 15.0326 39.1363 13.5163C38.3786 12.7934 37.7797 11.9205 37.3777 10.9533C36.9757 9.98615 36.7795 8.94581 36.8015 7.89857C36.7827 6.85115 36.9831 5.81138 37.39 4.84608C37.7968 3.88078 38.401 3.01131 39.1637 2.29354C40.7385 0.764514 42.6954 0 45.0345 0C47.3735 0 49.3205 0.759587 50.8757 2.27876C51.6333 3.00161 52.232 3.87449 52.6336 4.84173C53.0353 5.80897 53.231 6.84933 53.2083 7.89646C53.227 8.94355 53.0264 9.98295 52.6196 10.9479C52.2128 11.9128 51.6087 12.7819 50.8461 13.4994ZM45.0345 12.0844C46.2209 12.0844 47.1729 11.6831 47.8907 10.8806C48.6182 10.0599 49.0062 8.99297 48.9757 7.89646C48.9974 6.80391 48.5974 5.74502 47.859 4.93978C47.4988 4.53801 47.0552 4.2197 46.5594 4.00705C46.0635 3.7944 45.5273 3.69252 44.988 3.70853C43.8002 3.70853 42.8474 4.10979 42.1297 4.91232C41.4058 5.73534 41.0217 6.80283 41.0552 7.89857C41.0331 8.9912 41.4331 10.0503 42.1719 10.8553C42.5312 11.2558 42.9734 11.5732 43.4678 11.7854C43.9621 11.9977 44.4967 12.0997 45.0345 12.0844Z" fill="#7F7F7F"/>
<path d="M56.377 0.28299H64.6923C66.2404 0.28299 67.4711 0.622304 68.3845 1.30093C68.8242 1.61444 69.1795 2.03187 69.4189 2.51604C69.6584 3.00022 69.7744 3.53611 69.7566 4.07599C69.7566 5.65993 68.9551 6.80107 67.3522 7.49941C69.3323 8.10342 70.3224 9.37691 70.3224 11.3199C70.3437 11.91 70.2174 12.496 69.9549 13.0249C69.6924 13.5538 69.3021 14.0087 68.8193 14.3484C67.8103 15.0833 66.4289 15.4508 64.6754 15.4508H56.377V0.28299ZM60.6201 6.36742H63.6473C64.1321 6.40077 64.6115 6.24993 64.9899 5.94504C65.1432 5.80588 65.2644 5.63498 65.3449 5.44424C65.4255 5.25349 65.4636 5.04747 65.4565 4.84051C65.4607 4.65314 65.4238 4.46713 65.3483 4.29561C65.2728 4.12409 65.1605 3.97126 65.0195 3.84791C64.7282 3.58462 64.2898 3.45298 63.7043 3.45298H60.6222L60.6201 6.36742ZM60.6201 12.0844H64.0146C65.315 12.0844 65.9652 11.5747 65.9652 10.5554C65.9652 9.5698 65.277 9.07702 63.9006 9.07702H60.6201V12.0844Z" fill="#7F7F7F"/>
<path d="M80.5904 15.7908C78.2894 15.7908 76.3944 15.0601 74.9054 13.5986C73.4165 12.1372 72.6713 10.2365 72.6699 7.89646C72.6699 5.68739 73.3771 3.81905 74.7914 2.29143C76.2058 0.76381 77.9974 0 80.1661 0C82.5586 0 84.3881 0.792673 85.6548 2.37802C86.9214 3.96337 87.5547 5.91548 87.5547 8.23437C87.5547 8.46246 87.5357 8.83838 87.4998 9.36636H76.9447C77.094 10.2288 77.5425 11.011 78.2113 11.5754C78.9095 12.1016 79.7676 12.3708 80.6411 12.3378C81.9795 12.3378 83.2053 11.819 84.3185 10.7813L86.7799 12.9608C85.2558 14.8489 83.1926 15.7922 80.5904 15.7908ZM76.8856 6.67788H83.3622C83.2783 5.8047 82.9164 4.98151 82.3299 4.32943C82.0515 4.03881 81.7148 3.81046 81.3418 3.65939C80.9689 3.50833 80.5682 3.43799 80.1661 3.45299C79.7655 3.44117 79.3668 3.51173 78.9946 3.66031C78.6224 3.80888 78.2847 4.03231 78.0023 4.31676C77.4267 4.8912 77.0545 5.67824 76.8856 6.67788Z" fill="#7F7F7F"/>
<path d="M104.692 0.28299V15.4508H100.392V9.64935H95.1016V15.4508H90.8015V0.28299H95.1016V6.11188H100.392V0.28299H104.692Z" fill="#7F7F7F"/>
<path d="M108.595 15.4508V0.28299H112.895V5.29246H116.007C117.837 5.29246 119.302 5.71484 120.404 6.55961C121.506 7.40438 122.058 8.6497 122.059 10.2956C122.059 11.8978 121.546 13.1572 120.518 14.0738C119.491 14.9904 118.063 15.4473 116.233 15.4444L108.595 15.4508ZM115.583 8.54692H112.895V12.0548H115.61C117.025 12.0548 117.732 11.4515 117.732 10.2449C117.743 10.0087 117.699 9.77323 117.603 9.557C117.507 9.34077 117.363 9.14971 117.181 8.99887C116.814 8.69687 116.279 8.54692 115.583 8.54692Z" fill="#7F7F7F"/>
<path d="M140.277 15.7908C138.014 15.7908 136.133 15.027 134.633 13.4994C133.9 12.7652 133.323 11.8905 132.936 10.9276C132.55 9.96479 132.362 8.93375 132.384 7.89646C132.365 6.86011 132.555 5.83056 132.944 4.86983C133.333 3.90909 133.913 3.03705 134.647 2.30621C136.157 0.768738 138.052 0 140.332 0C142.766 0 144.775 0.887006 146.359 2.66102L143.841 5.20799C142.785 4.20694 141.607 3.70642 140.305 3.70642C139.803 3.69754 139.305 3.80257 138.85 4.01363C138.394 4.22468 137.992 4.53627 137.675 4.92499C136.967 5.75064 136.591 6.80941 136.619 7.89646C136.583 8.98858 136.96 10.0541 137.675 10.8806C138.021 11.2756 138.45 11.5886 138.932 11.7968C139.414 12.0051 139.936 12.1033 140.461 12.0844C141.65 12.0844 142.811 11.5466 143.942 10.4709L146.459 13.0179C145.707 13.8636 144.806 14.5637 143.801 15.0833C142.866 15.555 141.692 15.7908 140.277 15.7908Z" fill="#7F7F7F"/>
<path d="M161.181 0.28299V3.96195H156.684V15.4508H152.327V3.96195H147.829V0.28299H161.181Z" fill="#7F7F7F"/>
<path d="M163.585 19.9787V0.282997H167.886V2.4625C169.093 0.820832 170.668 0 172.61 0C174.496 0 176.118 0.707492 177.476 2.12248C178.834 3.53746 179.512 5.46212 179.511 7.89646C179.511 10.3097 178.837 12.2196 177.489 13.6261C176.87 14.3015 176.115 14.8388 175.275 15.2027C174.434 15.5666 173.526 15.749 172.61 15.738C170.723 15.738 169.148 14.9834 167.886 13.474V19.9787H163.585ZM168.882 10.9102C169.205 11.2858 169.607 11.5857 170.059 11.7887C170.511 11.9916 171.002 12.0926 171.498 12.0844C171.995 12.0913 172.488 11.9898 172.942 11.787C173.396 11.5843 173.801 11.2851 174.128 10.9102C174.853 10.1273 175.215 9.10377 175.215 7.83944C175.215 6.61312 174.856 5.60855 174.138 4.82573C173.811 4.45084 173.407 4.15163 172.952 3.94886C172.498 3.74609 172.005 3.64463 171.508 3.65151C171.011 3.64178 170.518 3.74199 170.064 3.94497C169.61 4.14795 169.206 4.44869 168.882 4.82573C168.178 5.60714 167.826 6.63072 167.826 7.89646C167.826 9.12137 168.178 10.1259 168.882 10.9102Z" fill="#7F7F7F"/>
<path d="M187.037 15.7338C185.546 15.7338 184.306 15.3192 183.317 14.4899C182.328 13.6606 181.835 12.5096 181.839 11.0369C181.839 9.43464 182.391 8.22733 183.494 7.41495C184.598 6.60256 186.082 6.19707 187.949 6.19848C189.21 6.19805 190.463 6.40789 191.656 6.81939V6.56596C191.656 4.71592 190.571 3.7916 188.402 3.79301C186.97 3.81751 185.553 4.09491 184.216 4.61243L183.131 1.33051C184.987 0.518172 186.992 0.10378 189.017 0.114047C191.297 0.114047 193.003 0.677225 194.136 1.80358C195.229 2.89755 195.776 4.51036 195.776 6.64199V15.4508H191.618V13.8098C190.468 15.0939 188.941 15.7352 187.037 15.7338ZM188.337 12.7623C189.336 12.7623 190.148 12.5131 190.769 12.0126C191.063 11.7916 191.301 11.5043 191.464 11.1741C191.626 10.8438 191.708 10.4799 191.704 10.1119V9.3389C190.842 8.95078 189.905 8.75753 188.96 8.77291C188.015 8.77291 187.284 8.95665 186.766 9.32412C186.511 9.50225 186.305 9.7424 186.167 10.022C186.03 10.3017 185.966 10.6116 185.981 10.9228C185.972 11.1831 186.026 11.4418 186.139 11.6763C186.253 11.9108 186.421 12.114 186.631 12.2681C187.129 12.6186 187.729 12.7926 188.337 12.7623Z" fill="#7F7F7F"/>
<path d="M211.392 0.28299V3.96195H206.893V15.4508H202.538V3.96195H198.039V0.28299H211.392Z" fill="#7F7F7F"/>
<path d="M220.982 15.7908C218.681 15.7908 216.785 15.0601 215.295 13.5986C213.804 12.1372 213.06 10.2365 213.061 7.89646C213.061 5.68739 213.769 3.81905 215.183 2.29143C216.597 0.76381 218.389 0 220.558 0C222.95 0 224.78 0.792673 226.046 2.37802C227.313 3.96337 227.946 5.91548 227.946 8.23437C227.946 8.46246 227.927 8.83838 227.889 9.36636H217.334C217.482 10.2295 217.931 11.0122 218.601 11.5754C219.299 12.102 220.158 12.3713 221.033 12.3378C222.374 12.3378 223.6 11.819 224.71 10.7813L227.171 12.9608C225.649 14.8489 223.586 15.7922 220.982 15.7908ZM217.275 6.67788H223.754C223.666 5.80396 223.302 4.98097 222.713 4.32943C222.434 4.03913 222.098 3.81099 221.725 3.65996C221.352 3.50892 220.951 3.43839 220.549 3.45299C220.148 3.44138 219.749 3.51203 219.377 3.66059C219.004 3.80914 218.666 4.03246 218.383 4.31676C217.815 4.8912 217.445 5.67824 217.275 6.67788Z" fill="#7F7F7F"/>
<path d="M242.253 3.96195H235.497V15.4508H231.197V0.28299H242.257L242.253 3.96195Z" fill="#7F7F7F"/>
<path d="M258.773 0.28299V15.4508H254.615V6.62297L248.704 15.4508H244.668V0.28299H248.826V9.14037L254.737 0.28299H258.773Z" fill="#7F7F7F"/>
<path d="M276.791 0.28299V15.4508H272.634V6.62297L266.724 15.4508H262.679V0.28299H266.833V9.14037L272.744 0.28299H276.791Z" fill="#7F7F7F"/>
<path d="M511.657 163.057C510.312 163.057 508.992 162.692 507.838 162.001L509.282 158.888C509.83 159.249 510.466 159.455 511.121 159.481C511.799 159.481 512.299 159.151 512.62 158.491L506.679 143.266H511.233L514.684 153.596L517.994 143.266H522.464L516.637 158.816C516.053 160.382 515.393 161.481 514.657 162.113C513.921 162.745 512.921 163.06 511.657 163.057Z" fill="#7F7F7F"/>
<path d="M525.066 162.972V143.275H529.367V145.454C530.573 143.814 532.147 142.993 534.089 142.992C535.003 142.982 535.908 143.165 536.747 143.529C537.585 143.893 538.337 144.43 538.955 145.104C540.312 146.519 540.991 148.443 540.992 150.878C540.993 153.312 540.319 155.222 538.97 156.607C538.35 157.283 537.595 157.82 536.754 158.184C535.913 158.548 535.005 158.73 534.089 158.719C532.204 158.719 530.63 157.964 529.367 156.455V162.964L525.066 162.972ZM530.369 153.902C530.693 154.278 531.095 154.578 531.547 154.781C532 154.984 532.491 155.084 532.987 155.076C533.484 155.083 533.977 154.981 534.431 154.778C534.885 154.576 535.29 154.277 535.617 153.902C536.334 153.118 536.692 152.094 536.692 150.831C536.692 149.603 536.334 148.599 535.617 147.817C535.29 147.443 534.885 147.143 534.431 146.941C533.977 146.738 533.484 146.636 532.987 146.643C532.491 146.635 532 146.735 531.547 146.938C531.095 147.141 530.693 147.441 530.369 147.817C529.666 148.602 529.314 149.625 529.314 150.888C529.311 152.116 529.663 153.12 530.369 153.902Z" fill="#7F7F7F"/>
<path d="M557.521 156.493C555.946 158.022 553.99 158.786 551.653 158.785C549.315 158.783 547.367 158.024 545.809 156.508C545.068 155.773 544.479 154.898 544.079 153.934C543.679 152.97 543.474 151.936 543.476 150.891C543.479 149.847 543.689 148.814 544.095 147.852C544.501 146.89 545.093 146.018 545.839 145.287C547.414 143.758 549.37 142.994 551.707 142.994C554.045 142.994 555.993 143.753 557.551 145.273C558.292 146.007 558.881 146.882 559.281 147.846C559.682 148.811 559.886 149.845 559.884 150.889C559.881 151.933 559.671 152.966 559.265 153.928C558.859 154.891 558.267 155.762 557.521 156.493ZM551.707 155.078C552.897 155.078 553.849 154.678 554.566 153.876C555.29 153.053 555.674 151.986 555.64 150.89C555.663 149.798 555.263 148.738 554.524 147.934C554.164 147.531 553.72 147.213 553.224 147C552.728 146.788 552.192 146.686 551.653 146.702C550.465 146.702 549.512 147.103 548.794 147.904C548.07 148.727 547.686 149.794 547.72 150.89C547.697 151.983 548.097 153.042 548.837 153.847C549.197 154.249 549.641 154.568 550.138 154.78C550.635 154.993 551.172 155.094 551.712 155.076L551.707 155.078Z" fill="#7F7F7F"/>
<path d="M563.056 143.275H571.372C572.92 143.275 574.15 143.615 575.064 144.295C575.504 144.608 575.859 145.025 576.099 145.509C576.338 145.992 576.454 146.528 576.436 147.068C576.436 148.652 575.634 149.793 574.032 150.491C576.012 151.095 577.002 152.369 577.002 154.312C577.022 154.903 576.895 155.489 576.63 156.018C576.366 156.547 575.973 157.002 575.488 157.34C574.479 158.075 573.098 158.443 571.344 158.445H563.056V143.275ZM567.3 149.359H570.325C570.909 149.359 571.359 149.218 571.669 148.937C571.822 148.798 571.943 148.627 572.024 148.437C572.105 148.247 572.143 148.041 572.136 147.834C572.14 147.647 572.103 147.461 572.027 147.29C571.952 147.118 571.839 146.966 571.697 146.844C571.405 146.581 570.967 146.448 570.382 146.447H567.3V149.359ZM567.3 155.076H570.694C571.994 155.076 572.645 154.566 572.645 153.547C572.645 152.561 571.956 152.069 570.58 152.069H567.3V155.076Z" fill="#7F7F7F"/>
<path d="M587.27 158.782C584.969 158.782 583.074 158.052 581.585 156.59C580.096 155.129 579.351 153.228 579.349 150.888C579.349 148.68 580.053 146.813 581.46 145.285C582.868 143.758 584.659 142.993 586.835 142.992C589.227 142.992 591.057 143.784 592.324 145.37C593.59 146.955 594.224 148.908 594.224 151.228C594.224 151.454 594.205 151.832 594.169 152.36H583.614C583.825 153.321 584.247 154.05 584.88 154.567C585.579 155.095 586.439 155.365 587.314 155.332C588.652 155.332 589.878 154.813 590.992 153.775L593.453 155.952C591.933 157.841 589.872 158.784 587.27 158.782ZM583.565 149.672H590.042C589.958 148.798 589.596 147.974 589.009 147.321C588.73 147.031 588.394 146.803 588.021 146.652C587.648 146.501 587.247 146.43 586.845 146.445C586.445 146.433 586.046 146.503 585.674 146.652C585.302 146.8 584.964 147.024 584.682 147.308C584.105 147.883 583.732 148.671 583.565 149.672Z" fill="#7F7F7F"/>
<path d="M611.371 143.275V158.445H607.071V152.643H601.781V158.445H597.481V143.275H601.781V149.101H607.071V143.275H611.371Z" fill="#7F7F7F"/>
<path d="M615.275 158.445V143.275H619.585V148.284H622.697C624.527 148.284 625.992 148.707 627.094 149.551C628.196 150.396 628.748 151.641 628.749 153.287C628.749 154.891 628.236 156.15 627.208 157.065C626.181 157.981 624.752 158.438 622.923 158.438L615.275 158.445ZM622.262 151.539H619.585V155.049H622.3C623.715 155.049 624.422 154.445 624.422 153.237C624.433 153 624.388 152.765 624.293 152.549C624.197 152.332 624.053 152.141 623.871 151.991C623.491 151.691 622.963 151.539 622.262 151.539Z" fill="#7F7F7F"/>
<path d="M639.798 162.972V143.275H644.099V145.454C645.306 143.814 646.881 142.993 648.823 142.992C650.708 142.992 652.33 143.696 653.689 145.103C655.049 146.511 655.727 148.436 655.724 150.877C655.724 153.291 655.05 155.201 653.702 156.607C653.083 157.283 652.328 157.82 651.488 158.184C650.647 158.548 649.739 158.73 648.823 158.719C646.936 158.719 645.361 157.964 644.099 156.455V162.964L639.798 162.972ZM645.103 153.902C645.427 154.277 645.829 154.577 646.281 154.78C646.733 154.983 647.224 155.084 647.719 155.076C648.216 155.083 648.709 154.981 649.163 154.779C649.618 154.576 650.022 154.277 650.349 153.902C651.067 153.118 651.426 152.094 651.426 150.831C651.426 149.603 651.067 148.599 650.349 147.817C650.022 147.442 649.618 147.143 649.163 146.94C648.709 146.738 648.216 146.636 647.719 146.643C647.224 146.635 646.733 146.736 646.281 146.939C645.829 147.142 645.427 147.442 645.103 147.817C644.4 148.602 644.048 149.625 644.048 150.888C644.044 152.116 644.396 153.12 645.103 153.902Z" fill="#7F7F7F"/>
<path d="M666.136 158.782C663.835 158.782 661.939 158.052 660.448 156.59C658.958 155.129 658.214 153.228 658.215 150.888C658.215 148.68 658.922 146.813 660.337 145.285C661.751 143.758 663.543 142.993 665.711 142.992C668.104 142.992 669.933 143.784 671.2 145.37C672.466 146.955 673.1 148.908 673.1 151.228C673.1 151.454 673.081 151.832 673.043 152.36H662.488C662.635 153.223 663.084 154.005 663.754 154.567C664.453 155.094 665.312 155.364 666.186 155.332C667.527 155.332 668.753 154.813 669.864 153.775L672.325 155.952C670.801 157.841 668.738 158.784 666.136 158.782ZM662.439 149.672H668.918C668.833 148.798 668.472 147.974 667.886 147.321C667.607 147.031 667.27 146.803 666.897 146.652C666.524 146.501 666.124 146.43 665.722 146.445C665.321 146.433 664.922 146.504 664.549 146.652C664.177 146.801 663.839 147.024 663.556 147.308C662.975 147.883 662.602 148.671 662.439 149.672Z" fill="#7F7F7F"/>
<path d="M698.92 143.275V158.445H676.347V143.275H680.647V154.766H685.483V143.275H689.783V154.766H694.592V143.275H698.92Z" fill="#7F7F7F"/>
<path d="M710.009 158.782C707.708 158.782 705.812 158.052 704.322 156.59C702.831 155.129 702.087 153.228 702.088 150.888C702.088 148.68 702.792 146.813 704.199 145.285C705.607 143.758 707.398 142.993 709.574 142.992C711.967 142.992 713.796 143.784 715.063 145.37C716.329 146.955 716.963 148.908 716.963 151.228C716.963 151.454 716.944 151.832 716.906 152.36H706.351C706.498 153.223 706.947 154.005 707.617 154.567C708.316 155.095 709.176 155.365 710.051 155.332C711.39 155.332 712.615 154.813 713.729 153.775L716.188 155.952C714.672 157.841 712.613 158.784 710.009 158.782ZM706.302 149.672H712.781C712.696 148.798 712.334 147.974 711.748 147.321C711.47 147.031 711.133 146.803 710.76 146.652C710.387 146.501 709.987 146.43 709.585 146.445C709.184 146.433 708.785 146.503 708.413 146.652C708.041 146.8 707.703 147.024 707.421 147.308C706.847 147.883 706.474 148.671 706.302 149.672Z" fill="#7F7F7F"/>
<path d="M734.108 143.275V158.445H729.81V152.643H724.52V158.445H720.22V143.275H724.52V149.101H729.81V143.275H734.108Z" fill="#7F7F7F"/>
<path d="M752.128 143.275V158.445H747.969V149.615L742.058 158.445H738.014V143.275H742.17V152.132L748.081 143.275H752.128Z" fill="#7F7F7F"/>
<path d="M769.468 143.275V158.445H765.168V153.587H762.846L759.648 158.445H754.67L758.546 152.869C756.435 152.058 755.379 150.549 755.379 148.341C755.379 146.792 755.917 145.561 756.992 144.647C758.067 143.734 759.576 143.276 761.518 143.275H769.468ZM762.255 150.455H765.168V146.643H762.227C761.436 146.643 760.821 146.808 760.389 147.137C760.173 147.305 760.001 147.523 759.887 147.772C759.774 148.021 759.723 148.294 759.738 148.567C759.725 148.837 759.779 149.106 759.895 149.351C760.011 149.595 760.186 149.807 760.403 149.967C760.845 150.299 761.463 150.464 762.255 150.464V150.455Z" fill="#7F7F7F"/>
<path d="M299.187 588.218V603.387H294.887V591.896H289.711V603.387H285.41V588.218H299.187Z" fill="#7F7F7F"/>
<path d="M302.976 607.915V588.218H307.276V590.397C308.484 588.757 310.059 587.936 312.001 587.935C313.885 587.935 315.504 588.642 316.856 590.057C318.209 591.472 318.887 593.397 318.891 595.831C318.891 598.244 318.217 600.154 316.869 601.561C316.25 602.236 315.495 602.773 314.655 603.137C313.814 603.501 312.906 603.683 311.99 603.673C310.103 603.673 308.528 602.918 307.266 601.409V607.917L302.976 607.915ZM308.281 598.845C308.604 599.22 309.006 599.52 309.458 599.723C309.91 599.926 310.401 600.027 310.897 600.019C311.394 600.026 311.887 599.924 312.341 599.722C312.795 599.519 313.2 599.22 313.527 598.845C314.245 598.061 314.604 597.037 314.604 595.774C314.604 594.549 314.245 593.545 313.527 592.76C313.2 592.385 312.795 592.086 312.341 591.883C311.887 591.681 311.394 591.579 310.897 591.586C310.401 591.578 309.91 591.679 309.458 591.882C309.006 592.085 308.604 592.385 308.281 592.76C307.578 593.545 307.226 594.568 307.226 595.831C307.221 597.059 307.573 598.063 308.281 598.845Z" fill="#7F7F7F"/>
<path d="M335.323 601.434C333.749 602.963 331.792 603.727 329.453 603.727C327.114 603.727 325.169 602.968 323.62 601.449C322.878 600.714 322.29 599.839 321.89 598.875C321.489 597.911 321.284 596.876 321.287 595.832C321.29 594.788 321.5 593.755 321.906 592.793C322.311 591.831 322.904 590.959 323.649 590.228C325.224 588.699 327.18 587.935 329.518 587.935C331.856 587.935 333.803 588.694 335.359 590.213C336.101 590.948 336.69 591.823 337.091 592.787C337.491 593.751 337.697 594.785 337.694 595.829C337.691 596.874 337.481 597.907 337.076 598.869C336.67 599.831 336.077 600.703 335.332 601.434H335.323ZM329.51 600.019C330.697 600.019 331.65 599.618 332.368 598.817C333.092 597.994 333.476 596.927 333.442 595.831C333.464 594.738 333.064 593.68 332.326 592.874C331.965 592.472 331.522 592.153 331.025 591.941C330.529 591.728 329.992 591.626 329.453 591.643C328.266 591.643 327.314 592.044 326.596 592.845C325.872 593.667 325.487 594.735 325.522 595.831C325.499 596.924 325.899 597.983 326.639 598.788C326.999 599.19 327.442 599.508 327.938 599.721C328.434 599.934 328.97 600.036 329.51 600.019Z" fill="#7F7F7F"/>
<path d="M352.507 603.387H343.008L342.695 606.952H339.075V599.708H340.719C341.704 597.613 342.197 594.217 342.197 589.521V588.218H354.586V599.708H356.653L356.142 606.952H352.522L352.507 603.387ZM345.095 599.708H350.274V591.894H346.227V592.234C346.189 595.501 345.812 597.992 345.095 599.708Z" fill="#7F7F7F"/>
<path d="M362.549 608C361.204 608 359.884 607.635 358.73 606.944L360.172 603.831C360.72 604.192 361.356 604.397 362.011 604.424C362.691 604.424 363.191 604.094 363.512 603.434L357.571 588.209H362.125L365.576 598.538L368.887 588.209H373.356L367.529 603.755C366.945 605.319 366.285 606.418 365.549 607.052C364.813 607.685 363.813 608.001 362.549 608Z" fill="#7F7F7F"/>
<path d="M375.845 603.387V588.218H380.145V594.443L385.576 588.218H390.527L384.954 594.443L391.234 603.387H386.142L382.095 597.613L380.145 599.736V603.387H375.845Z" fill="#7F7F7F"/>
<path d="M404.924 588.218V591.896H400.425V603.387H396.07V591.896H391.572V588.218H404.924Z" fill="#7F7F7F"/>
<path d="M420.516 601.434C418.941 602.963 416.985 603.727 414.647 603.727C412.31 603.727 410.363 602.968 408.806 601.449C408.064 600.714 407.475 599.84 407.075 598.875C406.674 597.911 406.469 596.877 406.471 595.833C406.474 594.788 406.684 593.755 407.09 592.793C407.495 591.831 408.088 590.959 408.833 590.228C410.408 588.699 412.365 587.935 414.702 587.935C417.04 587.935 418.988 588.694 420.546 590.213C421.287 590.948 421.875 591.823 422.276 592.787C422.676 593.751 422.881 594.786 422.878 595.83C422.876 596.874 422.665 597.907 422.26 598.869C421.854 599.831 421.261 600.703 420.516 601.434ZM414.702 600.019C415.891 600.019 416.844 599.618 417.56 598.817C418.284 597.994 418.668 596.927 418.635 595.831C418.658 594.738 418.257 593.679 417.518 592.874C417.158 592.472 416.715 592.154 416.219 591.941C415.723 591.728 415.187 591.627 414.647 591.643C413.458 591.643 412.505 592.044 411.789 592.845C411.065 593.668 410.681 594.735 410.714 595.831C410.692 596.924 411.092 597.983 411.831 598.788C412.192 599.191 412.637 599.51 413.134 599.723C413.632 599.936 414.17 600.037 414.711 600.019H414.702Z" fill="#7F7F7F"/>
<path d="M425.941 588.218H434.259C435.807 588.218 437.037 588.558 437.949 589.238C438.389 589.55 438.745 589.967 438.984 590.451C439.224 590.935 439.339 591.471 439.321 592.011C439.321 593.594 438.519 594.736 436.916 595.434C438.897 596.038 439.887 597.311 439.887 599.254C439.907 599.846 439.78 600.432 439.515 600.961C439.251 601.49 438.858 601.945 438.373 602.283C437.364 603.018 435.983 603.386 434.229 603.387H425.941V588.218ZM430.184 594.302H433.212C433.797 594.302 434.245 594.161 434.554 593.88C434.708 593.741 434.829 593.571 434.91 593.38C434.99 593.19 435.028 592.984 435.021 592.777C435.025 592.59 434.988 592.405 434.912 592.233C434.837 592.062 434.724 591.91 434.584 591.787C434.291 591.523 433.853 591.391 433.269 591.39H430.184V594.302ZM430.184 600.019H433.579C434.879 600.019 435.53 599.51 435.532 598.492C435.532 597.506 434.843 597.014 433.465 597.014H430.184V600.019Z" fill="#7F7F7F"/>
<path d="M442.857 603.387V588.218H447.157V593.238H450.269C452.098 593.238 453.565 593.66 454.668 594.505C455.771 595.349 456.323 596.595 456.323 598.241C456.323 599.844 455.809 601.104 454.78 602.019C453.751 602.934 452.323 603.392 450.495 603.392L442.857 603.387ZM449.844 596.481H447.157V599.996H449.872C451.286 599.996 451.993 599.392 451.993 598.184C452.004 597.947 451.96 597.712 451.864 597.496C451.769 597.28 451.624 597.088 451.442 596.938C451.075 596.634 450.541 596.481 449.844 596.481ZM458.331 603.387V588.218H462.631V603.387H458.331Z" fill="#7F7F7F"/>
<path d="M480.536 588.217V603.387H476.378V594.557L470.467 603.387H466.422V588.217H470.581V597.075L476.492 588.217H480.536ZM476.817 585.635C475.972 586.389 474.902 586.767 473.606 586.767C472.31 586.767 471.24 586.389 470.395 585.635C469.551 584.88 469.037 583.824 468.854 582.467L471.37 582.015C471.767 583.282 472.512 583.915 473.606 583.915C474.699 583.915 475.444 583.282 475.839 582.015L478.358 582.467C478.171 583.83 477.657 584.886 476.817 585.635Z" fill="#7F7F7F"/>
<path d="M496.378 608C495.033 608.001 493.712 607.636 492.559 606.944L494.001 603.831C494.548 604.192 495.184 604.397 495.839 604.424C496.519 604.424 497.017 604.095 497.338 603.434L491.398 588.209H495.953L499.403 598.538L502.713 588.209H507.182L501.355 603.746C500.77 605.311 500.11 606.41 499.375 607.043C498.641 607.677 497.641 607.996 496.378 608Z" fill="#7F7F7F"/>
<path d="M509.671 607.915V588.217H513.971V590.397C515.178 588.757 516.753 587.936 518.695 587.934C519.61 587.927 520.516 588.112 521.354 588.477C522.193 588.843 522.945 589.381 523.561 590.057C524.918 591.465 525.597 593.39 525.598 595.831C525.6 598.272 524.926 600.182 523.576 601.56C522.957 602.236 522.202 602.773 521.361 603.137C520.52 603.501 519.612 603.683 518.695 603.672C516.811 603.672 515.236 602.918 513.971 601.408V607.917L509.671 607.915ZM514.976 598.845C515.299 599.22 515.701 599.52 516.153 599.723C516.605 599.926 517.096 600.027 517.591 600.019C518.089 600.026 518.582 599.924 519.037 599.721C519.491 599.519 519.896 599.22 520.224 598.845C520.939 598.06 521.297 597.037 521.298 595.774C521.298 594.549 520.94 593.544 520.224 592.76C519.896 592.385 519.491 592.086 519.037 591.883C518.582 591.68 518.089 591.579 517.591 591.586C517.096 591.578 516.605 591.679 516.153 591.882C515.701 592.085 515.299 592.385 514.976 592.76C514.272 593.544 513.92 594.568 513.92 595.831C513.916 597.059 514.268 598.063 514.976 598.845Z" fill="#7F7F7F"/>
<path d="M542.018 601.434C540.443 602.963 538.487 603.727 536.149 603.727C533.812 603.727 531.865 602.968 530.308 601.449C529.566 600.714 528.978 599.84 528.577 598.875C528.176 597.911 527.971 596.877 527.973 595.833C527.976 594.788 528.186 593.755 528.592 592.793C528.997 591.831 529.59 590.959 530.336 590.228C531.91 588.699 533.867 587.935 536.206 587.935C538.545 587.935 540.492 588.694 542.047 590.213C542.789 590.948 543.377 591.823 543.778 592.787C544.178 593.751 544.383 594.786 544.38 595.83C544.378 596.874 544.167 597.907 543.762 598.869C543.356 599.831 542.763 600.703 542.018 601.434ZM536.206 600.019C537.393 600.019 538.345 599.618 539.063 598.817C539.786 597.994 540.17 596.927 540.137 595.831C540.16 594.738 539.759 593.679 539.02 592.874C538.66 592.472 538.217 592.154 537.721 591.941C537.225 591.728 536.689 591.627 536.149 591.643C534.96 591.643 534.007 592.044 533.291 592.845C532.567 593.668 532.183 594.735 532.216 595.831C532.194 596.924 532.594 597.983 533.333 598.788C533.693 599.189 534.136 599.507 534.631 599.72C535.126 599.933 535.661 600.035 536.2 600.019H536.206Z" fill="#7F7F7F"/>
<path d="M547.435 588.218H555.752C557.3 588.218 558.53 588.558 559.442 589.238C559.882 589.55 560.238 589.967 560.478 590.451C560.717 590.935 560.833 591.471 560.815 592.011C560.815 593.594 560.013 594.736 558.41 595.434C560.39 596.038 561.38 597.311 561.38 599.254C561.401 599.846 561.273 600.432 561.009 600.961C560.744 601.49 560.352 601.945 559.867 602.283C558.858 603.018 557.476 603.386 555.723 603.387H547.435V588.218ZM551.678 594.302H554.705C555.289 594.302 555.737 594.161 556.048 593.88C556.202 593.741 556.323 593.571 556.404 593.38C556.485 593.19 556.524 592.984 556.516 592.777C556.52 592.59 556.483 592.404 556.407 592.233C556.331 592.062 556.218 591.91 556.077 591.787C555.784 591.523 555.347 591.39 554.762 591.39H551.678V594.302ZM551.678 600.019H555.073C556.376 600.019 557.027 599.51 557.025 598.492C557.025 597.506 556.337 597.014 554.961 597.014H551.678V600.019Z" fill="#7F7F7F"/>
<path d="M571.536 603.727C569.235 603.727 567.34 602.996 565.849 601.533C564.359 600.07 563.614 598.17 563.616 595.831C563.616 593.623 564.323 591.756 565.737 590.228C567.152 588.701 568.943 587.936 571.112 587.935C573.505 587.935 575.334 588.727 576.601 590.313C577.867 591.898 578.501 593.851 578.501 596.171C578.501 596.397 578.482 596.775 578.444 597.303H567.889C568.036 598.165 568.485 598.947 569.155 599.51C569.854 600.038 570.714 600.308 571.589 600.274C572.928 600.274 574.153 599.756 575.267 598.718L577.726 600.895C576.203 602.783 574.14 603.727 571.536 603.727ZM567.829 594.615H574.308C574.223 593.741 573.862 592.917 573.276 592.264C572.997 591.974 572.66 591.746 572.287 591.595C571.915 591.444 571.514 591.373 571.112 591.388C570.711 591.376 570.313 591.446 569.941 591.595C569.568 591.743 569.231 591.967 568.948 592.251C568.367 592.826 567.994 593.614 567.829 594.615Z" fill="#7F7F7F"/>
<path d="M595.52 588.218V603.387H591.22V597.586H585.929V603.387H581.631V588.218H585.929V594.049H591.22V588.218H595.52Z" fill="#7F7F7F"/>
<path d="M599.32 603.387V588.218H603.62V593.238H606.731C608.561 593.238 610.027 593.66 611.131 594.505C612.234 595.349 612.786 596.595 612.786 598.241C612.786 599.844 612.272 601.104 611.245 602.019C610.217 602.934 608.788 603.392 606.957 603.392L599.32 603.387ZM606.307 596.481H603.62V599.996H606.337C607.744 599.996 608.451 599.392 608.458 598.184C608.469 597.947 608.425 597.712 608.329 597.495C608.233 597.279 608.088 597.088 607.905 596.938C607.531 596.634 606.999 596.481 606.301 596.481H606.307Z" fill="#7F7F7F"/>
<path d="M81.7304 62.7451V83.8854H77.1411V70.0227L67.9033 83.8854H63.5271V62.7451H68.1165V76.6077L77.405 62.7451H81.7304Z" fill="#353534"/>
<path d="M94.3184 62.3818C96.5702 62.3818 98.4068 62.9154 99.8282 63.9827C101.25 65.0499 101.961 66.4093 101.962 68.0608C101.962 70.3135 100.825 71.9326 98.551 72.9182C101.188 73.763 102.506 75.4237 102.505 77.9002C102.522 78.7788 102.332 79.6491 101.952 80.4413C101.572 81.2335 101.012 81.9256 100.316 82.462C98.8564 83.6489 96.9094 84.243 94.4747 84.2444C92.3214 84.2444 90.5151 83.9523 89.0557 83.368C87.561 82.7649 86.2059 81.8613 85.0743 80.7133L87.5505 77.4821C89.3801 79.2758 91.6241 80.172 94.2826 80.1705C95.3085 80.1705 96.1586 79.9439 96.8327 79.4905C97.1485 79.2963 97.4081 79.0228 97.5855 78.6971C97.7628 78.3714 97.8519 78.0049 97.8439 77.6341C97.859 77.2454 97.7599 76.8608 97.5587 76.5278C97.3576 76.1949 97.0634 75.9282 96.7123 75.7609C95.9566 75.3596 94.9349 75.1583 93.6471 75.1568H91.2089V71.292H93.5944C96.1079 71.292 97.3654 70.4768 97.3668 68.8464C97.3736 68.5027 97.2909 68.1632 97.127 67.861C96.963 67.5589 96.7234 67.3046 96.4316 67.1231C95.8067 66.7007 94.9813 66.4895 93.9554 66.4895C91.6628 66.4895 89.7629 67.2639 88.2556 68.8126L85.8089 65.8559C88.0213 63.5413 90.8578 62.3832 94.3184 62.3818Z" fill="#353534"/>
<path d="M106.543 83.8854V62.7451H111.555L117.109 71.6848L122.663 62.7451H127.675V83.8854H123.056V70.084L117.109 79.1145H116.989L111.103 70.1748V83.8854H106.543Z" fill="#353534"/>
<path d="M132.748 83.8854V62.7451H148.686V66.8823H137.364V71.1716H147.326V75.3089H137.364V79.7439H148.827V83.8854H132.748Z" fill="#353534"/>
<path d="M152.971 83.8854V62.7451H157.615V71.1104H166.188V62.7451H170.833V83.8854H166.188V75.3954H157.622V83.8854H152.971Z" fill="#353534"/>
<path d="M175.914 83.8854V62.7451H191.854V66.8823H180.533V71.1716H190.495V75.3089H180.533V79.7439H192.004V83.8854H175.914Z" fill="#353534"/>
<path d="M196.14 83.8854V62.7451H200.784V71.1104H209.357V62.7451H214.001V83.8854H209.357V75.3954H200.79V83.8854H196.14Z" fill="#353534"/>
<path d="M237.279 62.7451V83.8854H232.698V70.0227L223.46 83.8854H219.082V62.7451H223.671V76.6077L232.96 62.7451H237.279Z" fill="#353534"/>
<path d="M259.082 62.7451V83.8854H254.437V77.1272H250.79L246.262 83.8854H240.828L245.991 76.3353C242.973 75.2089 241.463 73.0041 241.463 69.7207C241.463 67.5469 242.173 65.8404 243.591 64.6014C245.01 63.3624 246.957 62.7437 249.432 62.7451H259.082ZM249.734 73.0132H254.444V66.9478H249.825C248.677 66.9478 247.781 67.2089 247.138 67.7313C246.494 68.2536 246.172 69.0189 246.171 70.0269C246.155 70.4379 246.233 70.847 246.398 71.2237C246.563 71.6004 246.81 71.935 247.123 72.2022C247.749 72.7429 248.62 73.0132 249.734 73.0132Z" fill="#353534"/>
<path d="M246.447 227.745V206.605H264.089V227.745H259.445V210.803H251.115V227.745H246.447Z" fill="#353534"/>
<path d="M269.208 227.745V206.605H277.842C280.338 206.605 282.308 207.279 283.753 208.628C285.199 209.977 285.923 211.758 285.928 213.973C285.928 216.33 285.123 218.16 283.513 219.464C281.903 220.768 279.862 221.417 277.391 221.411H273.859V227.747L269.208 227.745ZM273.853 217.266H277.534C278.683 217.266 279.583 216.964 280.236 216.36C280.56 216.061 280.815 215.696 280.984 215.29C281.154 214.883 281.233 214.445 281.218 214.005C281.218 212.978 280.886 212.188 280.221 211.633C279.557 211.078 278.631 210.802 277.443 210.803H273.855L273.853 217.266Z" fill="#353534"/>
<path d="M307.743 224.919C305.601 227.044 302.919 228.106 299.698 228.106C296.476 228.106 293.802 227.05 291.676 224.938C289.552 222.826 288.49 220.239 288.49 217.177C288.465 215.734 288.738 214.301 289.291 212.969C289.844 211.636 290.666 210.431 291.705 209.43C293.849 207.309 296.531 206.247 299.751 206.246C302.971 206.244 305.645 207.3 307.773 209.414C309.893 211.525 310.955 214.113 310.956 217.175C310.982 218.617 310.71 220.05 310.157 221.382C309.604 222.715 308.782 223.919 307.743 224.919ZM295.17 221.884C296.38 223.173 297.91 223.817 299.759 223.817C301.608 223.817 303.128 223.178 304.317 221.899C305.506 220.622 306.1 219.047 306.098 217.173C306.138 215.425 305.487 213.732 304.287 212.461C303.08 211.173 301.55 210.529 299.698 210.529C297.846 210.529 296.327 211.168 295.14 212.446C293.954 213.726 293.36 215.302 293.358 217.173C293.318 218.921 293.968 220.615 295.17 221.887V221.884Z" fill="#353534"/>
<path d="M315.155 227.745V206.605H331.093V210.742H319.774V215.031H329.742V219.169H319.78V223.604H331.251V227.741L315.155 227.745Z" fill="#353534"/>
<path d="M335.442 227.745V206.605H340.086V215.838L348.659 206.596H354.274L345.67 215.566L354.667 227.737H349.081L342.537 218.738L340.092 221.272V227.734L335.442 227.745Z" fill="#353534"/>
<path d="M362.463 227.745V210.894H356.033V206.605H373.541V210.894H367.107V227.745H362.463Z" fill="#353534"/>
<path d="M373.55 436.696V415.556H391.173V436.696H386.528V419.754H378.196V436.696H373.55Z" fill="#353534"/>
<path d="M396.311 436.696V415.556H404.945C407.44 415.556 409.41 416.23 410.856 417.579C412.301 418.928 413.025 420.71 413.028 422.924C413.028 425.281 412.223 427.111 410.613 428.415C409.003 429.719 406.962 430.368 404.491 430.362H400.959V436.698L396.311 436.696ZM400.955 426.217H404.639C405.784 426.217 406.685 425.915 407.341 425.311C407.664 425.012 407.918 424.646 408.087 424.24C408.256 423.834 408.336 423.396 408.32 422.956C408.32 421.927 407.989 421.136 407.326 420.584C406.663 420.032 405.737 419.756 404.548 419.754H400.959L400.955 426.217Z" fill="#353534"/>
<path d="M434.845 433.872C432.702 435.997 430.02 437.059 426.8 437.059C423.58 437.059 420.906 436.003 418.778 433.891C416.656 431.779 415.595 429.192 415.595 426.13C415.57 424.684 415.844 423.248 416.4 421.912C416.957 420.577 417.783 419.371 418.827 418.371C420.969 416.249 423.651 415.187 426.872 415.186C430.094 415.185 432.767 416.241 434.894 418.354C437.018 420.466 438.079 423.053 438.079 426.115C438.104 427.561 437.829 428.997 437.272 430.332C436.716 431.667 435.89 432.872 434.845 433.872ZM422.272 430.831C423.48 432.119 425.009 432.764 426.862 432.764C428.714 432.764 430.233 432.124 431.419 430.846C432.606 429.569 433.2 427.993 433.201 426.119C433.241 424.372 432.59 422.679 431.39 421.408C430.182 420.119 428.652 419.475 426.8 419.475C424.948 419.475 423.429 420.115 422.243 421.393C421.053 422.673 420.46 424.248 420.461 426.119C420.421 427.867 421.072 429.561 422.272 430.831Z" fill="#353534"/>
<path d="M440.022 441.106V432.498H442.015C442.849 430.553 443.448 428.515 443.796 426.428C444.159 424.295 444.34 421.497 444.339 418.033V415.556H459.705V432.498H462.238L461.634 441.106H457.74V436.696H444.518L444.216 441.106H440.022ZM455.056 419.754H448.804V421.898C448.804 425.885 448.17 429.418 446.904 432.498H455.054L455.056 419.754Z" fill="#353534"/>
<path d="M474.497 426.73L479.599 415.556H484.64L476.519 431.887C475.614 433.699 474.613 435.008 473.515 435.813C472.379 436.632 471.006 437.056 469.606 437.021C468.004 437.018 466.431 436.591 465.048 435.784L466.859 432.371C467.613 432.832 468.481 433.072 469.365 433.066C470.409 433.066 471.294 432.502 472.021 431.376L463.576 415.552H468.77L474.497 426.73Z" fill="#353534"/>
<path d="M487.779 436.696V415.556H492.424V424.797L500.997 415.556H506.612L498.007 424.525L507.004 436.696H501.419L494.875 427.697L492.43 430.231V436.694L487.779 436.696Z" fill="#353534"/>
<path d="M514.796 436.696V419.849H508.366V415.56H525.875V419.849H519.445V436.7L514.796 436.696Z" fill="#353534"/>
<path d="M529.497 436.696V415.556H534.142V422.736H538.64C541.055 422.736 542.947 423.355 544.315 424.593C545.683 425.83 546.367 427.496 546.369 429.592C546.369 431.764 545.649 433.49 544.209 434.77C542.769 436.05 540.812 436.689 538.338 436.688L529.497 436.696ZM538.252 426.73H534.146V432.497H538.281C540.596 432.497 541.754 431.512 541.754 429.541C541.754 427.665 540.587 426.728 538.252 426.73ZM548.727 436.696V415.556H553.371V436.696H548.727Z" fill="#353534"/>
</g>
<defs>
<clipPath id="clip0">
<rect width="770" height="608" fill="white"/>
</clipPath>
</defs>
</svg>
