<svg width="50" height="50" viewBox="0 0 50 50" fill="none" xmlns="http://www.w3.org/2000/svg">
<path d="M14 2C11.25 2 9 4.25 9 7C9 9.75 11.25 12 14 12C16.75 12 19 9.75 19 7C19 4.25 16.75 2 14 2ZM14 4C15.668 4 17 5.33203 17 7C17 8.66797 15.668 10 14 10C12.332 10 11 8.66797 11 7C11 5.33203 12.332 4 14 4ZM9.5 13C6.47266 13 4 15.4727 4 18.5V31C4 32.6445 5.35547 34 7 34C7.35156 34 7.68359 33.9258 8 33.8125V44.5C8 46.4219 9.57812 48 11.5 48C12.4844 48 13.375 47.582 14.0117 46.9219C14.6445 47.5781 15.5195 48 16.5 48C18.4219 48 20 46.4219 20 44.5V19H31C32.6445 19 34 17.6445 34 16C34 14.3555 32.6445 13 31 13H9.5ZM9.5 15H31C31.5664 15 32 15.4336 32 16C32 16.5664 31.5664 17 31 17H19C18.4492 17 18 17.4492 18 18V44.5C18 45.3398 17.3398 46 16.5 46C15.6602 46 15 45.3398 15 44.5V34C15.0039 33.7305 14.8984 33.4688 14.707 33.2773C14.5156 33.0859 14.2539 32.9805 13.9844 32.9883C13.4336 32.9961 12.9922 33.4492 13 34V44.5C13 45.3398 12.3398 46 11.5 46C10.6602 46 10 45.3398 10 44.5V21C10.0039 20.7305 9.89844 20.4688 9.70703 20.2773C9.51563 20.0859 9.25391 19.9805 8.98438 19.9883C8.43359 19.9961 7.99219 20.4492 8 21V31C8 31.5664 7.56641 32 7 32C6.43359 32 6 31.5664 6 31V18.5C6 16.5547 7.55469 15 9.5 15ZM37 17C36.6406 16.9961 36.3047 17.1836 36.1211 17.4961C35.9414 17.8086 35.9414 18.1914 36.1211 18.5039C36.3047 18.8164 36.6406 19.0039 37 19H45C45.3594 19.0039 45.6953 18.8164 45.8789 18.5039C46.0586 18.1914 46.0586 17.8086 45.8789 17.4961C45.6953 17.1836 45.3594 16.9961 45 17H37ZM24 24C23.6406 23.9961 23.3047 24.1836 23.1211 24.4961C22.9414 24.8086 22.9414 25.1914 23.1211 25.5039C23.3047 25.8164 23.6406 26.0039 24 26H45C45.3594 26.0039 45.6953 25.8164 45.8789 25.5039C46.0586 25.1914 46.0586 24.8086 45.8789 24.4961C45.6953 24.1836 45.3594 23.9961 45 24H24ZM24 31C23.6406 30.9961 23.3047 31.1836 23.1211 31.4961C22.9414 31.8086 22.9414 32.1914 23.1211 32.5039C23.3047 32.8164 23.6406 33.0039 24 33H45C45.3594 33.0039 45.6953 32.8164 45.8789 32.5039C46.0586 32.1914 46.0586 31.8086 45.8789 31.4961C45.6953 31.1836 45.3594 30.9961 45 31H24ZM24 38C23.6406 37.9961 23.3047 38.1836 23.1211 38.4961C22.9414 38.8086 22.9414 39.1914 23.1211 39.5039C23.3047 39.8164 23.6406 40.0039 24 40H45C45.3594 40.0039 45.6953 39.8164 45.8789 39.5039C46.0586 39.1914 46.0586 38.8086 45.8789 38.4961C45.6953 38.1836 45.3594 37.9961 45 38H24ZM24 45C23.6406 44.9961 23.3047 45.1836 23.1211 45.4961C22.9414 45.8086 22.9414 46.1914 23.1211 46.5039C23.3047 46.8164 23.6406 47.0039 24 47H45C45.3594 47.0039 45.6953 46.8164 45.8789 46.5039C46.0586 46.1914 46.0586 45.8086 45.8789 45.4961C45.6953 45.1836 45.3594 44.9961 45 45H24Z" fill="#E84F1C"/>
</svg>
