<svg width="870" height="574" viewBox="0 0 870 574" fill="none" xmlns="http://www.w3.org/2000/svg">
<g clip-path="url(#clip0)">
<path d="M304.242 286.11C304.242 285.289 304.253 284.467 304.274 283.646H189.925L199.85 275.415C200.106 275.204 200.317 274.944 200.472 274.651C200.627 274.358 200.722 274.036 200.752 273.706C200.783 273.376 200.747 273.043 200.648 272.726C200.549 272.41 200.388 272.116 200.175 271.862C199.743 271.346 199.125 271.023 198.455 270.962C197.785 270.901 197.119 271.108 196.601 271.536L179.035 286.11L196.593 300.672C197.111 301.102 197.777 301.309 198.447 301.248C199.117 301.188 199.736 300.865 200.168 300.349C200.381 300.095 200.542 299.801 200.641 299.484C200.74 299.167 200.775 298.834 200.745 298.504C200.715 298.173 200.62 297.852 200.465 297.558C200.31 297.265 200.098 297.005 199.843 296.793L189.925 288.575H304.274C304.251 287.753 304.241 286.932 304.242 286.11Z" fill="#7F8080"/>
<path d="M587.625 271.556C587.107 271.128 586.441 270.921 585.772 270.982C585.103 271.043 584.485 271.366 584.053 271.881C583.84 272.136 583.679 272.429 583.58 272.746C583.481 273.063 583.446 273.396 583.476 273.726C583.506 274.056 583.601 274.377 583.756 274.671C583.911 274.964 584.122 275.224 584.378 275.435L594.303 283.666H479.946C479.966 284.482 479.978 285.3 479.978 286.13C479.978 286.961 479.978 287.769 479.946 288.595H594.301L584.378 296.825C584.122 297.037 583.911 297.297 583.756 297.59C583.601 297.884 583.506 298.205 583.476 298.536C583.445 298.866 583.481 299.2 583.58 299.516C583.679 299.833 583.84 300.127 584.053 300.382C584.485 300.897 585.103 301.22 585.772 301.28C586.442 301.341 587.108 301.134 587.625 300.704L605.186 286.143L587.625 271.556Z" fill="#7F8080"/>
<path d="M407.649 473.186C407.395 472.972 407.102 472.811 406.785 472.712C406.468 472.612 406.135 472.576 405.805 472.606C405.474 472.636 405.153 472.732 404.859 472.887C404.566 473.042 404.306 473.253 404.095 473.509L395.867 483.438V369.038C395.046 369.058 394.225 369.068 393.404 369.068C392.583 369.068 391.761 369.058 390.94 369.038V483.438L382.713 473.509C382.501 473.253 382.241 473.042 381.948 472.887C381.654 472.732 381.333 472.636 381.003 472.606C380.672 472.576 380.339 472.612 380.022 472.712C379.706 472.811 379.412 472.972 379.158 473.186C378.644 473.619 378.321 474.237 378.261 474.906C378.2 475.576 378.407 476.242 378.835 476.759L393.394 494.325L407.95 476.759C408.381 476.245 408.591 475.58 408.535 474.911C408.479 474.242 408.16 473.622 407.649 473.186Z" fill="#7F8080"/>
<path d="M315.379 21.1367C312.38 21.1367 309.885 20.1197 307.893 18.0858C305.901 16.0519 304.904 13.5465 304.902 10.5696C304.902 7.61236 305.904 5.11105 307.908 3.06565C309.911 1.02024 312.461 -0.00164092 315.557 1.9778e-06C317.325 1.9778e-06 318.813 0.287509 320.02 0.862522C321.3 1.48503 322.465 2.31806 323.469 3.32687L320.784 6.41962C320.051 5.72734 319.221 5.14615 318.32 4.69458C317.442 4.31271 316.491 4.12847 315.534 4.15489C314.734 4.13495 313.939 4.29077 313.205 4.61137C312.471 4.93197 311.817 5.40957 311.287 6.01054C310.163 7.26154 309.562 8.89748 309.61 10.5794C309.568 12.2559 310.168 13.885 311.287 15.1335C311.814 15.7366 312.466 16.2166 313.198 16.5398C313.93 16.863 314.724 17.0215 315.524 17.004C316.5 17.0276 317.468 16.8278 318.355 16.4199C319.282 15.9389 320.137 15.33 320.895 14.6111L323.755 17.6743C322.747 18.7893 321.52 19.6844 320.151 20.3037C318.855 20.8607 317.264 21.1383 315.379 21.1367Z" fill="#3C3C3B"/>
<path d="M332.101 20.7869V4.49759H325.883V0.350098H342.811V4.49759H336.594V20.7869H332.101Z" fill="#3C3C3B"/>
<path d="M346.255 20.7869V0.350098H354.601C357.012 0.350098 358.918 1.00233 360.321 2.30679C361.723 3.61125 362.424 5.33629 362.422 7.48191C362.422 9.75896 361.644 11.5251 360.087 12.7803C358.53 14.0354 356.559 14.663 354.175 14.663H350.76V20.7869H346.255ZM350.748 10.656H354.308C355.416 10.656 356.287 10.3644 356.921 9.78114C357.234 9.49226 357.481 9.13926 357.644 8.74627C357.808 8.35328 357.885 7.92956 357.87 7.50409C357.87 6.51835 357.549 5.7544 356.907 5.21225C356.264 4.67009 355.373 4.4023 354.231 4.40887H350.758L350.748 10.656Z" fill="#3C3C3B"/>
<path d="M363.996 20.7868L372.753 0.20459H376.894L385.649 20.7868H380.949L379.082 16.2031H370.445L368.575 20.7868H363.996ZM372.051 12.2331H377.471L374.761 5.60643L372.051 12.2331Z" fill="#3C3C3B"/>
<path d="M393.559 20.7869V4.49759H387.344V0.350098H404.27V4.49759H398.055V20.7869H393.559Z" fill="#3C3C3B"/>
<path d="M407.713 20.7869V0.350098H423.122V4.34973H412.179V8.49476H421.809V12.4969H412.179V16.7873H423.265V20.7869H407.713Z" fill="#3C3C3B"/>
<path d="M431.761 4.40887V20.7869H427.265V0.350098H441.538V4.40887H431.761Z" fill="#3C3C3B"/>
<path d="M462.316 0.350098V20.7869H457.882V7.39319L448.952 20.7943H444.72V0.350098H449.154V13.7512L458.141 0.350098H462.316Z" fill="#3C3C3B"/>
<path d="M483.385 0.350098V20.7869H478.89V14.2465H475.36L470.994 20.7869H465.74L470.731 13.4875C467.814 12.3983 466.355 10.2674 466.354 7.09501C466.354 4.99374 467.039 3.34428 468.41 2.1466C469.782 0.948933 471.665 0.350098 474.059 0.350098H483.385ZM474.337 10.2765H478.89V4.40887H474.426C473.317 4.40887 472.451 4.66188 471.827 5.16789C471.203 5.6739 470.892 6.41321 470.893 7.3858C470.878 7.78309 470.953 8.1787 471.113 8.54283C471.272 8.90695 471.512 9.23009 471.815 9.48789C472.426 10.0153 473.267 10.2781 474.337 10.2765Z" fill="#3C3C3B"/>
<path d="M275.864 55.8199V42.7121H270.477V40.7258H283.533V42.7121H278.133V55.8199H275.864Z" fill="#3C3C3B"/>
<path d="M299.328 53.8507C298.601 54.6065 297.725 55.203 296.756 55.6026C295.786 56.0022 294.745 56.1961 293.697 56.1721C291.458 56.1721 289.595 55.4033 288.107 53.8655C286.67 52.3662 285.87 50.3676 285.875 48.2901C285.881 46.2127 286.691 44.2184 288.137 42.7267C289.626 41.2423 291.642 40.4076 293.744 40.4048C295.846 40.402 297.864 41.2314 299.357 42.7119C300.804 44.2068 301.609 46.2071 301.604 48.2873C301.598 50.3676 300.782 52.3636 299.328 53.8507ZM293.753 54.1563C294.5 54.1786 295.243 54.0388 295.93 53.7466C296.618 53.4543 297.234 53.0165 297.737 52.4633C298.753 51.3071 299.308 49.8174 299.298 48.2779C299.288 46.7384 298.712 45.2564 297.68 44.1141C297.177 43.5596 296.561 43.1188 295.874 42.8213C295.188 42.5239 294.445 42.3765 293.697 42.3891C292.95 42.3668 292.208 42.5081 291.522 42.8031C290.836 43.0981 290.223 43.5397 289.726 44.0969C288.693 45.2435 288.14 46.7433 288.181 48.2863C288.146 49.8302 288.723 51.3254 289.785 52.4461C290.286 52.9975 290.9 53.4354 291.584 53.7304C292.269 54.0254 293.008 54.1706 293.753 54.1563Z" fill="#3C3C3B"/>
<path d="M305.661 55.8199V40.7258H318.734V55.8199H316.488V42.7121H307.92V55.8199H305.661Z" fill="#3C3C3B"/>
<path d="M323.141 48.2295V45.8662H331.253V48.2295H323.141Z" fill="#3C3C3B"/>
<path d="M335.66 55.8199V40.7258H337.791L343.422 48.6684L349.058 40.7258H351.219V55.8199H348.942V44.3188L343.368 51.9583L337.852 44.3188V55.8199H335.66Z" fill="#3C3C3B"/>
<path d="M362.831 56.1722C361.834 56.1941 360.844 56.0095 359.923 55.6299C359.001 55.2503 358.168 54.684 357.476 53.9666C356.024 52.4979 355.299 50.6085 355.3 48.2986C355.3 46.0988 355.991 44.2349 357.372 42.707C358.014 41.9697 358.81 41.3822 359.704 40.9862C360.598 40.5902 361.568 40.3953 362.545 40.4152C364.705 40.4152 366.417 41.1742 367.681 42.6923C368.946 44.2103 369.578 46.1177 369.578 48.4145C369.578 48.7077 369.578 48.9689 369.549 49.2031H357.584C357.74 50.7408 358.319 51.9623 359.321 52.8675C360.294 53.7617 361.574 54.2478 362.895 54.2254C364.701 54.2254 366.287 53.5148 367.652 52.0937L369.053 53.3481C367.357 55.2325 365.283 56.1739 362.831 56.1722ZM357.577 47.3844H367.287C367.202 46.0506 366.697 44.7781 365.844 43.7495C365.023 42.7867 363.898 42.3045 362.471 42.3029C361.852 42.2964 361.239 42.4205 360.671 42.6672C360.103 42.9139 359.593 43.2777 359.175 43.7347C358.242 44.7332 357.678 46.021 357.577 47.3844Z" fill="#3C3C3B"/>
<path d="M373.512 55.8199V40.7258H375.759V47.2366H384.454V40.7258H386.701V55.8199H384.454V49.2229H375.759V55.8199H373.512Z" fill="#3C3C3B"/>
<path d="M398.325 56.1722C397.329 56.194 396.339 56.0093 395.417 55.6297C394.496 55.2501 393.662 54.6839 392.97 53.9666C391.522 52.4979 390.797 50.6086 390.797 48.2986C390.797 46.0988 391.488 44.2349 392.869 42.707C393.511 41.9697 394.307 41.3822 395.201 40.9862C396.095 40.5902 397.065 40.3953 398.042 40.4152C400.2 40.4152 401.912 41.1742 403.178 42.6923C404.444 44.2103 405.077 46.1177 405.075 48.4145C405.075 48.7077 405.075 48.9689 405.046 49.2031H393.081C393.235 50.7408 393.81 51.9623 394.805 52.8675C395.779 53.7572 397.056 54.2396 398.375 54.2155C400.181 54.2155 401.767 53.505 403.131 52.0839L404.533 53.3382C402.842 55.2292 400.772 56.1739 398.325 56.1722ZM393.074 47.3844H402.792C402.707 46.0501 402.2 44.7773 401.346 43.7495C400.524 42.7867 399.401 42.3045 397.976 42.3029C397.356 42.2967 396.742 42.4209 396.174 42.6676C395.606 42.9143 395.096 43.2778 394.677 43.7347C393.739 44.7317 393.17 46.0194 393.064 47.3844H393.074Z" fill="#3C3C3B"/>
<path d="M406.78 59.5879V53.8361H408.425C409.767 51.3718 410.439 47.8782 410.44 43.3553V40.7258H421.178V53.8361H423.452L423.102 59.5879H421.235V55.8199H409.036L408.627 59.5879H406.78ZM410.807 53.8361H418.919V42.7121H412.586V44.8142C412.586 48.6175 411.993 51.6248 410.807 53.8361Z" fill="#3C3C3B"/>
<path d="M424.61 55.8199L430.797 47.1799L424.93 40.7258H427.639L435.315 49.4866V40.7258H437.562V49.4866L445.238 40.7258H447.947L442.082 47.1799L448.268 55.8199H445.642L440.631 48.7941L437.567 52.153V55.8298H435.32V52.1431L432.256 48.7941L427.238 55.8298L424.61 55.8199Z" fill="#3C3C3B"/>
<path d="M451.372 55.8199V40.7258H453.505L459.136 48.6684L464.77 40.7258H466.928V55.8199H464.651V44.3188L459.079 51.9583L453.562 44.3188V55.8199H451.372Z" fill="#3C3C3B"/>
<path d="M478.54 56.1722C477.544 56.194 476.553 56.0093 475.632 55.6297C474.71 55.2501 473.877 54.6839 473.185 53.9666C471.736 52.4979 471.012 50.6086 471.012 48.2986C471.012 46.0988 471.703 44.2349 473.084 42.707C473.726 41.9697 474.522 41.3822 475.416 40.9862C476.31 40.5902 477.279 40.3953 478.257 40.4152C480.415 40.4152 482.127 41.1742 483.393 42.6923C484.659 44.2103 485.291 46.1177 485.29 48.4145C485.29 48.7077 485.29 48.9689 485.26 49.2031H473.296C473.452 50.7408 474.026 51.9623 475.02 52.8675C475.993 53.7619 477.273 54.248 478.594 54.2254C480.401 54.2254 481.986 53.5148 483.351 52.0937L484.752 53.3481C483.064 55.2325 480.993 56.1739 478.54 56.1722ZM473.288 47.3844H483.006C482.921 46.0501 482.415 44.7773 481.56 43.7495C480.739 42.7867 479.616 42.3045 478.19 42.3029C477.571 42.2967 476.957 42.4209 476.389 42.6676C475.82 42.9143 475.31 43.2778 474.892 43.7347C473.957 44.7331 473.392 46.0206 473.288 47.3844Z" fill="#3C3C3B"/>
<path d="M489.224 55.8199V40.7258H491.47V47.2366H500.168V40.7258H502.415V55.8199H500.168V49.2229H491.47V55.8199H489.224Z" fill="#3C3C3B"/>
<path d="M511.078 55.8199V42.7121H505.681V40.7258H518.754V42.7121H513.364V55.8199H511.078Z" fill="#3C3C3B"/>
<path d="M324.627 534.297V518.005H318.409V513.86H335.337V518.005H329.12V534.297H324.627Z" fill="#3C3C3B"/>
<path d="M337.03 534.297L345.784 513.715H349.928L358.683 534.297H353.985L352.118 529.713H343.479L341.612 534.297H337.03ZM345.082 525.741H350.502L347.792 519.114L345.082 525.741Z" fill="#3C3C3B"/>
<path d="M361.836 534.297V513.86H366.329V522.793L374.616 513.86H380.035L371.721 522.53L380.417 534.297H375.017L368.686 525.595L366.321 528.047V534.297H361.836Z" fill="#3C3C3B"/>
<path d="M387.896 534.297V518.005H381.678V513.86H398.604V518.005H392.389V534.297H387.896Z" fill="#3C3C3B"/>
<path d="M419.646 513.86V534.297H415.212V520.896L406.282 534.297H402.05V513.86H406.484V527.261L415.473 513.86H419.646Z" fill="#3C3C3B"/>
<path d="M424.548 534.297V513.86H429.044V522.793L437.33 513.86H442.75L434.431 522.53L443.129 534.297H437.739L431.406 525.595L429.044 528.047V534.297H424.548Z" fill="#3C3C3B"/>
<path d="M444.102 534.297L452.857 513.715H457L465.755 534.297H461.058L459.19 529.713H450.549L448.682 534.297H444.102ZM452.157 525.741H457.577L454.867 519.114L452.157 525.741Z" fill="#3C3C3B"/>
<path d="M254.63 574V554.231H256.877V557.267C258.398 555.03 260.324 553.911 262.656 553.911C263.599 553.906 264.533 554.094 265.401 554.463C266.269 554.832 267.054 555.373 267.706 556.055C269.144 557.487 269.864 559.4 269.864 561.792C269.864 564.148 269.144 566.046 267.706 567.487C267.056 568.172 266.272 568.717 265.404 569.088C264.535 569.46 263.6 569.649 262.656 569.646C260.283 569.646 258.356 568.578 256.877 566.442V574.003L254.63 574ZM262.247 567.637C262.956 567.655 263.66 567.522 264.314 567.248C264.968 566.973 265.556 566.563 266.041 566.045C267.052 564.986 267.559 563.56 267.56 561.77C267.56 560.036 267.045 558.63 266.013 557.551C265.535 557.03 264.953 556.616 264.304 556.337C263.654 556.057 262.954 555.918 262.247 555.929C261.529 555.927 260.819 556.074 260.161 556.361C259.503 556.647 258.912 557.066 258.424 557.592C257.335 558.705 256.791 560.106 256.791 561.797C256.791 563.487 257.335 564.884 258.424 565.986C258.914 566.509 259.506 566.925 260.164 567.209C260.821 567.494 261.531 567.639 262.247 567.637Z" fill="#3C3C3B"/>
<path d="M278.503 569.65C277.077 569.686 275.681 569.245 274.534 568.396C273.426 567.558 272.871 566.39 272.869 564.892C272.869 563.316 273.453 562.1 274.62 561.242C275.788 560.384 277.355 559.957 279.321 559.958C280.88 559.959 282.432 560.175 283.932 560.601V560.145C283.932 558.822 283.54 557.809 282.764 557.109C281.988 556.409 280.885 556.06 279.466 556.06C277.879 556.085 276.316 556.453 274.884 557.139L274.212 555.301C275.926 554.479 277.799 554.04 279.7 554.014C281.835 554.014 283.459 554.569 284.572 555.68C285.623 556.73 286.149 558.208 286.149 560.116V569.342H283.932V567.095C282.59 568.799 280.78 569.65 278.503 569.65ZM278.941 567.842C280.223 567.88 281.479 567.478 282.501 566.703C282.96 566.369 283.332 565.929 283.586 565.421C283.84 564.913 283.968 564.351 283.959 563.783V562.381C282.528 561.961 281.044 561.745 279.552 561.74C278.173 561.74 277.093 562.017 276.313 562.57C275.946 562.82 275.649 563.157 275.447 563.551C275.245 563.946 275.145 564.385 275.157 564.828C275.146 565.254 275.239 565.677 275.43 566.059C275.621 566.441 275.903 566.77 276.251 567.016C277.033 567.579 277.978 567.87 278.941 567.842Z" fill="#3C3C3B"/>
<path d="M297.998 569.68C295.682 569.68 293.829 568.916 292.438 567.388C291.047 565.86 290.351 563.793 290.351 561.185C290.351 560.233 290.37 559.419 290.408 558.746C290.446 558.072 290.524 557.328 290.642 556.513C290.735 555.791 290.921 555.085 291.196 554.411C291.464 553.803 291.795 553.225 292.182 552.686C292.598 552.106 293.129 551.619 293.743 551.257C294.44 550.845 295.199 550.549 295.99 550.379L304.395 548.396L304.833 550.293L296.663 552.306C295.145 552.696 294.06 553.313 293.408 554.16C292.756 555.006 292.372 556.179 292.256 557.679C293.538 555.5 295.62 554.41 298.5 554.408C299.458 554.398 300.408 554.589 301.288 554.969C302.167 555.349 302.957 555.909 303.607 556.614C304.298 557.31 304.842 558.138 305.208 559.048C305.574 559.958 305.754 560.932 305.738 561.912C305.755 562.929 305.567 563.939 305.187 564.882C304.806 565.825 304.239 566.681 303.521 567.4C302.809 568.144 301.951 568.731 301 569.123C300.049 569.516 299.026 569.706 297.998 569.68ZM298.054 567.667C298.773 567.685 299.487 567.546 300.147 567.261C300.807 566.976 301.398 566.551 301.877 566.016C302.889 564.917 303.434 563.467 303.395 561.974C303.427 560.477 302.865 559.029 301.833 557.945C301.35 557.409 300.758 556.983 300.096 556.696C299.434 556.408 298.719 556.266 297.998 556.279C297.279 556.262 296.565 556.4 295.905 556.685C295.245 556.97 294.655 557.395 294.175 557.93C293.162 559.029 292.618 560.48 292.657 561.974C292.626 563.47 293.187 564.917 294.219 566.001C294.703 566.538 295.298 566.965 295.962 567.252C296.625 567.54 297.343 567.681 298.067 567.667H298.054Z" fill="#3C3C3B"/>
<path d="M322.306 567.359C321.579 568.114 320.703 568.711 319.734 569.111C318.765 569.51 317.723 569.704 316.675 569.68C314.437 569.68 312.573 568.911 311.086 567.373C309.648 565.875 308.848 563.876 308.854 561.799C308.859 559.722 309.67 557.728 311.115 556.237C312.604 554.753 314.62 553.918 316.722 553.915C318.825 553.912 320.843 554.742 322.336 556.222C323.782 557.717 324.587 559.717 324.582 561.796C324.576 563.876 323.76 565.872 322.306 567.359ZM316.732 567.667C317.478 567.689 318.221 567.549 318.909 567.257C319.596 566.965 320.212 566.527 320.715 565.974C321.731 564.817 322.287 563.327 322.277 561.787C322.266 560.247 321.69 558.765 320.658 557.622C320.155 557.067 319.54 556.627 318.853 556.329C318.166 556.032 317.423 555.884 316.675 555.897C315.929 555.875 315.186 556.016 314.5 556.311C313.814 556.606 313.201 557.048 312.704 557.605C311.67 558.751 311.117 560.251 311.157 561.794C311.123 563.339 311.7 564.835 312.763 565.956C313.265 566.508 313.878 566.946 314.563 567.241C315.247 567.536 315.986 567.681 316.732 567.667Z" fill="#3C3C3B"/>
<path d="M338.219 569.33V563.103C337.471 563.511 336.678 563.83 335.855 564.051C334.984 564.317 334.08 564.459 333.17 564.473C331.652 564.473 330.441 564.084 329.536 563.307C328.631 562.53 328.179 561.41 328.179 559.948V554.231H330.425V559.633C330.405 560.022 330.466 560.411 330.604 560.776C330.742 561.14 330.955 561.472 331.228 561.75C331.764 562.264 332.509 562.522 333.463 562.523C335.158 562.551 336.821 562.051 338.219 561.092V554.231H340.466V569.325L338.219 569.33Z" fill="#3C3C3B"/>
<path d="M345.477 569.33V554.231H347.726V566.171L356.695 554.231H358.882V569.325H356.636V557.385L347.647 569.325L345.477 569.33Z" fill="#3C3C3B"/>
<path d="M363.893 569.33V554.231H366.139V566.171L375.098 554.231H377.288V569.325H375.039V557.385L366.055 569.33H363.893ZM373.253 551.094C372.488 551.734 371.522 552.085 370.524 552.085C369.526 552.085 368.56 551.734 367.795 551.094C367.044 550.428 366.553 549.517 366.41 548.524L367.957 548.203C368.345 549.567 369.2 550.248 370.524 550.246C371.848 550.245 372.704 549.564 373.093 548.203L374.638 548.524C374.49 549.515 373.997 550.422 373.246 551.084L373.253 551.094Z" fill="#3C3C3B"/>
<path d="M391.061 569.33V554.231H404.137V569.325H401.887V556.217H393.308V569.325L391.061 569.33Z" fill="#3C3C3B"/>
<path d="M415.751 569.68C414.755 569.702 413.765 569.518 412.843 569.138C411.922 568.759 411.089 568.194 410.396 567.477C408.944 565.998 408.219 564.105 408.221 561.797C408.221 559.598 408.911 557.735 410.292 556.207C410.935 555.47 411.731 554.883 412.625 554.487C413.518 554.091 414.488 553.896 415.466 553.916C417.625 553.916 419.337 554.675 420.602 556.193C421.866 557.711 422.498 559.618 422.498 561.915C422.498 562.206 422.498 562.469 422.469 562.703H410.504C410.659 564.241 411.233 565.463 412.229 566.368C413.202 567.261 414.482 567.747 415.803 567.723C417.609 567.723 419.195 567.014 420.56 565.594L421.961 566.848C420.273 568.736 418.203 569.68 415.751 569.68ZM410.497 560.885H420.215C420.129 559.551 419.624 558.279 418.771 557.25C417.95 556.285 416.826 555.804 415.399 555.806C414.78 555.799 414.167 555.922 413.599 556.169C413.031 556.415 412.521 556.778 412.103 557.235C411.167 558.233 410.601 559.521 410.497 560.885Z" fill="#3C3C3B"/>
<path d="M426.432 574V554.231H428.679V557.267C430.196 555.03 432.122 553.911 434.456 553.911C435.399 553.906 436.333 554.094 437.201 554.463C438.069 554.832 438.853 555.373 439.505 556.055C440.944 557.487 441.664 559.4 441.666 561.792C441.666 564.148 440.946 566.046 439.505 567.487C438.855 568.172 438.072 568.717 437.204 569.088C436.335 569.46 435.4 569.649 434.456 569.646C432.083 569.646 430.157 568.578 428.679 566.442V574.003L426.432 574ZM434.044 567.637C434.753 567.655 435.458 567.522 436.111 567.248C436.765 566.973 437.354 566.563 437.838 566.045C438.848 564.986 439.354 563.56 439.355 561.77C439.355 560.036 438.84 558.63 437.808 557.551C437.331 557.03 436.748 556.616 436.1 556.337C435.451 556.057 434.75 555.918 434.044 555.929C433.327 555.927 432.616 556.074 431.958 556.36C431.3 556.646 430.709 557.066 430.221 557.592C429.131 558.705 428.585 560.106 428.585 561.797C428.585 563.487 429.131 564.884 430.221 565.986C430.711 566.509 431.303 566.926 431.961 567.21C432.618 567.494 433.328 567.64 434.044 567.637Z" fill="#3C3C3B"/>
<path d="M452.608 569.68C451.58 569.701 450.558 569.505 449.611 569.105C448.663 568.705 447.81 568.11 447.107 567.359C445.675 565.862 444.876 563.87 444.876 561.798C444.876 559.726 445.675 557.734 447.107 556.237C447.81 555.486 448.663 554.89 449.611 554.491C450.558 554.091 451.58 553.895 452.608 553.916C454.943 553.916 456.957 554.811 458.648 556.602L457.219 558.12C455.819 556.641 454.272 555.902 452.578 555.902C451.853 555.891 451.134 556.038 450.472 556.333C449.809 556.628 449.218 557.064 448.741 557.61C447.7 558.752 447.141 560.254 447.181 561.799C447.145 563.341 447.716 564.836 448.77 565.961C449.267 566.511 449.876 566.948 450.556 567.242C451.236 567.537 451.971 567.683 452.711 567.669C454.327 567.669 455.846 566.91 457.266 565.392L458.744 566.762C457.008 568.708 454.963 569.68 452.608 569.68Z" fill="#3C3C3B"/>
<path d="M474.993 567.359C474.265 568.114 473.389 568.711 472.419 569.111C471.45 569.51 470.407 569.704 469.359 569.68C467.122 569.68 465.26 568.911 463.772 567.373C462.334 565.875 461.533 563.877 461.538 561.8C461.543 559.723 462.354 557.728 463.799 556.237C465.289 554.753 467.305 553.919 469.408 553.916C471.51 553.913 473.528 554.742 475.022 556.222C476.468 557.717 477.274 559.717 477.268 561.796C477.263 563.876 476.446 565.872 474.993 567.359ZM469.418 567.667C470.165 567.689 470.908 567.549 471.595 567.257C472.283 566.965 472.899 566.527 473.401 565.974C474.448 564.834 475.008 563.331 474.963 561.784C474.996 560.233 474.413 558.732 473.342 557.61C472.84 557.055 472.224 556.614 471.537 556.316C470.85 556.019 470.107 555.872 469.359 555.885C468.613 555.863 467.871 556.004 467.186 556.299C466.5 556.594 465.888 557.035 465.391 557.592C464.356 558.738 463.802 560.238 463.844 561.782C463.808 563.327 464.385 564.824 465.45 565.944C465.95 566.498 466.563 566.938 467.247 567.235C467.932 567.532 468.672 567.68 469.418 567.667Z" fill="#3C3C3B"/>
<path d="M481.324 569.33V554.231H483.573V560.742H492.268V554.231H494.515V569.325H492.268V562.733H483.573V569.33H481.324Z" fill="#3C3C3B"/>
<path d="M504.028 569.65C502.603 569.686 501.206 569.245 500.06 568.396C498.951 567.558 498.397 566.39 498.397 564.892C498.397 563.316 498.981 562.1 500.149 561.242C501.316 560.384 502.882 559.957 504.846 559.958C506.406 559.959 507.957 560.175 509.458 560.601V560.145C509.458 558.823 509.068 557.811 508.29 557.109C507.511 556.408 506.412 556.058 504.991 556.06C503.404 556.085 501.841 556.453 500.41 557.139L499.74 555.301C501.453 554.478 503.325 554.039 505.225 554.014C507.36 554.014 508.985 554.569 510.098 555.68C511.151 556.73 511.676 558.208 511.675 560.116V569.342H509.458V567.095C508.121 568.799 506.311 569.65 504.028 569.65ZM504.467 567.842C505.749 567.88 507.005 567.479 508.026 566.703C508.486 566.369 508.859 565.93 509.113 565.421C509.367 564.913 509.496 564.351 509.487 563.783V562.381C508.056 561.961 506.572 561.745 505.08 561.74C503.699 561.74 502.619 562.017 501.841 562.57C501.471 562.818 501.17 563.156 500.965 563.552C500.761 563.948 500.661 564.39 500.673 564.835C500.661 565.262 500.755 565.685 500.946 566.066C501.137 566.448 501.419 566.777 501.767 567.023C502.552 567.586 503.501 567.873 504.467 567.842Z" fill="#3C3C3B"/>
<path d="M515.702 569.564C515.091 569.56 514.483 569.482 513.892 569.33L514.155 567.403C514.504 567.521 514.867 567.59 515.234 567.608C515.592 567.618 515.948 567.564 516.286 567.447C516.655 567.253 516.963 566.959 517.175 566.6C517.549 566.008 517.8 565.348 517.914 564.658C518.134 563.48 518.285 562.291 518.368 561.097C518.494 559.559 518.557 557.691 518.557 555.493V554.231H529.238V569.325H526.992V556.217H520.688V556.567C520.704 558.526 520.616 560.485 520.424 562.435C520.309 563.716 520.09 564.985 519.769 566.23C519.574 567.016 519.199 567.746 518.673 568.362C518.311 568.799 517.844 569.138 517.316 569.347C516.793 569.505 516.248 569.578 515.702 569.564Z" fill="#3C3C3B"/>
<path d="M10.4767 297.229C7.48122 297.229 4.98584 296.213 2.99051 294.179C0.995192 292.145 -0.00164784 289.639 -5.6036e-06 286.662C-5.6036e-06 283.705 1.00176 281.204 3.00529 279.158C5.00883 277.113 7.5543 276.091 10.6417 276.093C12.412 276.093 13.9007 276.379 15.1078 276.953C16.3858 277.578 17.5512 278.41 18.5565 279.417L15.8714 282.51C15.1393 281.814 14.3094 281.229 13.4081 280.773C12.5292 280.391 11.5773 280.207 10.6195 280.233C9.81949 280.213 9.0248 280.369 8.29148 280.689C7.55815 281.01 6.90402 281.488 6.37517 282.089C5.29216 283.361 4.69735 284.977 4.69735 286.648C4.69735 288.318 5.29216 289.935 6.37517 291.207C6.90232 291.81 7.55583 292.291 8.28935 292.614C9.02286 292.936 9.81841 293.094 10.6195 293.075C11.5952 293.099 12.5635 292.899 13.4499 292.491C14.3779 292.01 15.233 291.4 15.9897 290.679L18.8521 293.75C17.8442 294.865 16.6174 295.76 15.2482 296.379C13.9508 296.948 12.3603 297.231 10.4767 297.229Z" fill="#3C3C3B"/>
<path d="M40.0395 276.443V296.879H35.6054V283.478L26.6758 296.879H22.4412V276.443H26.8753V289.844L35.8641 276.443H40.0395Z" fill="#3C3C3B"/>
<path d="M54.5142 297.229C51.5187 297.229 49.0233 296.213 47.028 294.179C45.0327 292.145 44.0359 289.639 44.0375 286.662C44.0375 283.705 45.0393 281.204 47.0428 279.158C49.0463 277.113 51.5918 276.091 54.6792 276.093C56.4495 276.093 57.9382 276.379 59.1453 276.953C60.4233 277.578 61.5887 278.41 62.594 279.417L59.9089 282.51C59.1764 281.814 58.3466 281.229 57.4456 280.773C56.5667 280.391 55.6148 280.207 54.657 280.233C53.8567 280.213 53.0617 280.369 52.328 280.69C51.5944 281.01 50.9398 281.488 50.4102 282.089C49.3286 283.361 48.7347 284.977 48.7347 286.648C48.7347 288.318 49.3286 289.934 50.4102 291.207C50.9379 291.81 51.5919 292.291 52.3258 292.613C53.0597 292.936 53.8556 293.094 54.657 293.075C55.6327 293.098 56.6008 292.898 57.4874 292.491C58.4154 292.01 59.2705 291.4 60.0272 290.679L62.8896 293.75C61.8818 294.865 60.6549 295.76 59.2857 296.379C57.9933 296.948 56.4027 297.231 54.5142 297.229Z" fill="#3C3C3B"/>
<path d="M71.2355 296.879V280.588H65.0327V276.443H81.9585V280.588H75.7311V296.879H71.2355Z" fill="#3C3C3B"/>
<path d="M85.3899 296.879V276.443H100.798V280.442H89.8536V284.587H99.4853V288.587H89.8536V292.88H100.939V296.879H85.3899Z" fill="#3C3C3B"/>
<path d="M104.939 296.879V276.443H109.785L115.155 285.085L120.522 276.443H125.368V296.879H120.904V283.537L115.157 292.271H115.039L109.349 283.631V296.884L104.939 296.879Z" fill="#3C3C3B"/>
<path d="M130.272 296.879V276.443H134.768V283.399H139.116C141.451 283.399 143.28 283.997 144.602 285.194C145.924 286.39 146.586 288 146.587 290.026C146.587 292.129 145.892 293.798 144.501 295.034C143.11 296.269 141.217 296.887 138.823 296.887L130.272 296.879ZM138.736 287.246H134.768V292.821H138.766C141.003 292.821 142.121 291.867 142.121 289.96C142.121 288.151 140.993 287.246 138.736 287.246ZM148.863 296.879V276.443H153.357V296.879H148.863Z" fill="#3C3C3B"/>
<path d="M10.9422 324.322V321.957H19.0541V324.322H10.9422Z" fill="#3C3C3B"/>
<path d="M32.2158 331.913V316.819H45.2889V331.913H43.0423V318.805H34.4624V331.913H32.2158Z" fill="#3C3C3B"/>
<path d="M50.3092 336.585V316.819H52.5558V319.857C54.0733 317.616 55.9996 316.497 58.3349 316.498C59.2776 316.493 60.2114 316.68 61.0793 317.048C61.9472 317.416 62.7308 317.958 63.3823 318.64C64.8225 320.069 65.5427 321.981 65.5427 324.377C65.5427 326.733 64.8225 328.63 63.3823 330.069C62.7337 330.756 61.951 331.302 61.0828 331.674C60.2146 332.046 59.2793 332.235 58.3349 332.23C55.9602 332.23 54.0338 331.163 52.5558 329.027V336.59L50.3092 336.585ZM57.926 330.222C58.6345 330.239 59.3388 330.107 59.9925 329.833C60.6463 329.559 61.2348 329.15 61.7195 328.633C62.7311 327.571 63.237 326.145 63.237 324.354C63.237 322.623 62.7213 321.217 61.69 320.135C61.2121 319.615 60.6297 319.202 59.981 318.923C59.3323 318.644 58.632 318.506 57.926 318.516C57.2084 318.515 56.4983 318.661 55.8403 318.948C55.1823 319.234 54.5907 319.654 54.1028 320.18C53.014 321.289 52.4696 322.689 52.4696 324.382C52.4696 326.074 53.014 327.47 54.1028 328.571C54.5926 329.094 55.1848 329.511 55.8426 329.795C56.5003 330.079 57.2095 330.224 57.926 330.222Z" fill="#3C3C3B"/>
<path d="M82.2072 329.944C81.4797 330.699 80.6034 331.296 79.6337 331.695C78.664 332.095 77.622 332.289 76.5735 332.265C74.3368 332.265 72.4737 331.496 70.9842 329.958C69.5467 328.459 68.7466 326.46 68.7521 324.383C68.7577 322.306 69.5684 320.311 71.0137 318.82C72.5029 317.335 74.5187 316.5 76.621 316.498C78.7232 316.495 80.7412 317.324 82.2343 318.805C83.6813 320.299 84.4881 322.299 84.4831 324.38C84.478 326.46 83.6615 328.456 82.2072 329.944ZM76.6327 330.249C77.3794 330.271 78.1222 330.132 78.8098 329.839C79.4974 329.547 80.1136 329.109 80.6159 328.556C81.659 327.421 82.2191 325.923 82.1777 324.382C82.2109 322.83 81.628 321.329 80.5568 320.207C80.0541 319.652 79.4386 319.211 78.7516 318.914C78.0646 318.616 77.322 318.469 76.5735 318.482C75.8275 318.459 75.0856 318.601 74.4 318.896C73.7144 319.191 73.1017 319.632 72.6051 320.19C71.5705 321.335 71.0165 322.836 71.0581 324.379C71.0229 325.924 71.6004 327.419 72.6642 328.539C73.1656 329.091 73.7791 329.529 74.4635 329.823C75.148 330.118 75.8875 330.264 76.6327 330.249Z" fill="#3C3C3B"/>
<path d="M101.554 335.681V331.913H88.5381V316.819H90.7847V329.929H99.2488V316.819H101.49V329.929H103.767L103.417 335.681H101.554Z" fill="#3C3C3B"/>
<path d="M113.46 332.265C112.463 332.285 111.473 332.098 110.552 331.716C109.63 331.334 108.798 330.766 108.107 330.047C106.657 328.579 105.932 326.689 105.932 324.379C105.932 322.178 106.622 320.314 108.004 318.788C108.646 318.05 109.442 317.463 110.336 317.067C111.229 316.671 112.199 316.476 113.177 316.496C115.336 316.496 117.048 317.255 118.313 318.773C119.577 320.291 120.21 322.198 120.21 324.495C120.21 324.788 120.21 325.05 120.18 325.284H108.208C108.362 326.821 108.941 328.043 109.945 328.948C110.918 329.842 112.198 330.328 113.519 330.306C115.325 330.306 116.911 329.595 118.276 328.174L119.677 329.429C117.986 331.321 115.913 332.267 113.46 332.265ZM108.208 323.477H117.926C117.841 322.144 117.335 320.871 116.482 319.842C115.661 318.878 114.537 318.396 113.11 318.396C112.491 318.389 111.877 318.513 111.31 318.76C110.742 319.007 110.232 319.371 109.814 319.828C108.878 320.825 108.311 322.113 108.208 323.477Z" fill="#3C3C3B"/>
<path d="M130.942 332.265C129.914 332.286 128.893 332.09 127.945 331.69C126.997 331.29 126.144 330.695 125.442 329.944C124.008 328.447 123.208 326.454 123.208 324.382C123.208 322.309 124.008 320.316 125.442 318.819C126.144 318.068 126.997 317.473 127.945 317.073C128.893 316.673 129.914 316.477 130.942 316.498C133.278 316.498 135.291 317.393 136.983 319.184L135.554 320.702C134.153 319.224 132.606 318.484 130.913 318.484C130.188 318.473 129.469 318.62 128.806 318.915C128.143 319.21 127.552 319.646 127.075 320.192C126.032 321.334 125.472 322.835 125.513 324.382C125.477 325.923 126.049 327.417 127.104 328.541C127.601 329.092 128.21 329.529 128.89 329.824C129.57 330.118 130.305 330.263 131.046 330.249C132.662 330.249 134.179 329.49 135.598 327.972L137.076 329.345C135.342 331.291 133.297 332.265 130.942 332.265Z" fill="#3C3C3B"/>
<path d="M147.605 332.265C146.576 332.286 145.555 332.09 144.607 331.69C143.66 331.29 142.807 330.695 142.104 329.944C140.671 328.446 139.872 326.454 139.872 324.382C139.872 322.309 140.671 320.317 142.104 318.819C142.807 318.068 143.66 317.473 144.607 317.073C145.555 316.673 146.576 316.477 147.605 316.498C149.94 316.498 151.954 317.393 153.647 319.184L152.216 320.702C150.815 319.224 149.268 318.484 147.575 318.484C146.85 318.473 146.131 318.62 145.469 318.915C144.807 319.21 144.217 319.646 143.74 320.192C142.697 321.334 142.137 322.836 142.178 324.382C142.142 325.923 142.713 327.417 143.767 328.541C144.265 329.093 144.877 329.531 145.559 329.825C146.242 330.12 146.98 330.265 147.723 330.249C149.337 330.249 150.855 329.49 152.275 327.972L153.753 329.345C152.009 331.292 149.96 332.265 147.605 332.265Z" fill="#3C3C3B"/>
<path d="M157.47 331.913V316.819H159.717V322.487H163.745C165.495 322.487 166.925 322.861 168.033 323.61C169.142 324.36 169.696 325.493 169.696 327.011C169.696 328.509 169.181 329.701 168.151 330.587C167.122 331.472 165.74 331.915 164.006 331.915L157.47 331.913ZM159.717 329.941H163.814C164.963 329.941 165.853 329.695 166.484 329.202C167.114 328.709 167.431 327.998 167.432 327.07C167.45 326.685 167.368 326.301 167.196 325.956C167.023 325.611 166.765 325.316 166.447 325.099C165.79 324.642 164.88 324.414 163.717 324.414H159.717V329.941ZM172.411 331.913V316.819H174.652V331.913H172.411Z" fill="#3C3C3B"/>
<path d="M10.9422 359.356V356.992H19.0541V359.356H10.9422Z" fill="#3C3C3B"/>
<path d="M32.2158 366.941V351.847H34.4624V363.786L43.4217 351.847H45.6116V366.941H43.3551V354.999L34.3762 366.941H32.2158Z" fill="#3C3C3B"/>
<path d="M50.6294 366.941V351.847H52.8785V358.357H61.584V351.847H63.8306V366.941H61.584V360.341H52.8883V366.941H50.6294Z" fill="#3C3C3B"/>
<path d="M75.6399 367.298C74.6116 367.319 73.5903 367.123 72.6426 366.723C71.6949 366.323 70.8419 365.728 70.1392 364.977C68.7068 363.48 67.9072 361.487 67.9072 359.415C67.9072 357.342 68.7068 355.35 70.1392 353.853C70.8419 353.101 71.6949 352.506 72.6426 352.106C73.5903 351.706 74.6116 351.51 75.6399 351.531C77.9752 351.531 79.9886 352.427 81.6801 354.217L80.2513 355.735C78.8505 354.257 77.3035 353.518 75.6104 353.518C74.8851 353.507 74.1662 353.654 73.5035 353.949C72.8408 354.244 72.2501 354.679 71.7725 355.225C70.7314 356.368 70.1726 357.869 70.2131 359.415C70.1771 360.956 70.7477 362.45 71.802 363.574C72.3007 364.126 72.912 364.564 73.5946 364.858C74.2771 365.153 75.015 365.298 75.7582 365.282C77.3709 365.282 78.8883 364.523 80.3105 363.005L81.7885 364.378C80.0444 366.325 77.9949 367.298 75.6399 367.298Z" fill="#3C3C3B"/>
<path d="M89.1515 366.941V353.831H83.7543V351.859H96.8273V353.831H91.4276V366.941H89.1515Z" fill="#3C3C3B"/>
<path d="M100.096 371.623V351.859H102.343V354.895C103.86 352.657 105.787 351.538 108.122 351.536C109.065 351.532 109.999 351.72 110.867 352.089C111.734 352.458 112.518 353.001 113.169 353.683C114.61 355.114 115.33 357.026 115.33 359.42C115.33 361.776 114.61 363.673 113.169 365.112C112.521 365.799 111.738 366.345 110.87 366.717C110.002 367.089 109.066 367.278 108.122 367.274C105.747 367.274 103.821 366.206 102.343 364.07V371.623H100.096ZM107.713 365.26C108.422 365.277 109.126 365.144 109.78 364.87C110.434 364.595 111.022 364.186 111.507 363.668C112.518 362.607 113.024 361.181 113.024 359.39C113.024 357.658 112.508 356.252 111.477 355.171C110.999 354.651 110.416 354.238 109.768 353.959C109.119 353.68 108.419 353.542 107.713 353.552C106.995 353.55 106.285 353.697 105.627 353.983C104.969 354.27 104.378 354.689 103.89 355.215C102.801 356.324 102.257 357.726 102.257 359.42C102.257 361.113 102.801 362.51 103.89 363.609C104.38 364.131 104.973 364.547 105.63 364.83C106.288 365.113 106.997 365.258 107.713 365.255V365.26Z" fill="#3C3C3B"/>
<path d="M121.808 371.707C120.697 371.7 119.602 371.44 118.606 370.948L119.365 369.166C120.096 369.539 120.906 369.729 121.727 369.721C122.361 369.739 122.978 369.514 123.451 369.092C123.919 368.673 124.377 367.939 124.823 366.889L117.965 351.857H120.446L125.932 364.44L130.777 351.857H133.169L126.829 367.434C126.185 368.971 125.475 370.066 124.698 370.719C123.885 371.386 122.859 371.737 121.808 371.707Z" fill="#3C3C3B"/>
<path d="M136.717 366.941V351.847H138.845L144.484 359.794L150.115 351.854H152.275V366.941H149.999V355.437L144.424 363.077L138.909 355.437V366.941H136.717Z" fill="#3C3C3B"/>
<path d="M163.89 367.298C162.892 367.319 161.902 367.132 160.98 366.75C160.058 366.369 159.226 365.8 158.535 365.08C157.086 363.612 156.361 361.722 156.359 359.412C156.309 357.352 157.05 355.351 158.431 353.821C159.074 353.084 159.87 352.496 160.763 352.101C161.657 351.705 162.627 351.509 163.604 351.529C165.764 351.529 167.476 352.288 168.74 353.806C170.005 355.324 170.638 357.232 170.639 359.531C170.639 359.821 170.639 360.085 170.61 360.317H158.64C158.805 361.854 159.379 363.076 160.365 363.981C161.339 364.874 162.618 365.36 163.939 365.339C165.746 365.339 167.332 364.628 168.698 363.207L170.098 364.464C168.409 366.354 166.34 367.298 163.89 367.298ZM158.64 358.51H168.358C168.274 357.176 167.768 355.904 166.915 354.875C166.094 353.913 164.97 353.43 163.545 353.429C162.924 353.422 162.309 353.546 161.74 353.794C161.17 354.041 160.66 354.407 160.242 354.866C159.311 355.864 158.746 357.149 158.64 358.51Z" fill="#3C3C3B"/>
<path d="M174.571 366.941V351.847H176.818V358.357H185.513V351.847H187.762V366.941H185.513V360.341H176.818V366.941H174.571Z" fill="#3C3C3B"/>
<path d="M196.428 366.941V353.831H191.029V351.859H204.104V353.831H198.705V366.941H196.428Z" fill="#3C3C3B"/>
<path d="M207.373 366.941V351.847H209.632V357.515H213.647C215.398 357.515 216.827 357.889 217.936 358.638C219.045 359.388 219.599 360.521 219.599 362.039C219.599 363.541 219.084 364.734 218.054 365.617C217.025 366.501 215.643 366.942 213.908 366.941H207.373ZM209.632 364.969H213.716C214.866 364.969 215.757 364.723 216.389 364.23C217.021 363.737 217.337 363.027 217.335 362.098C217.352 361.713 217.27 361.33 217.098 360.985C216.925 360.64 216.668 360.344 216.35 360.127C215.693 359.672 214.783 359.443 213.62 359.442H209.632V364.969ZM222.326 366.956V351.861H224.575V366.941L222.326 366.956Z" fill="#3C3C3B"/>
<path d="M10.9422 394.391V392.026H19.0541V394.391H10.9422Z" fill="#3C3C3B"/>
<path d="M35.864 401.981V388.873H30.4643V386.887H43.5399V388.873H38.1402V401.981H35.864Z" fill="#3C3C3B"/>
<path d="M53.4032 402.331C52.4069 402.353 51.4169 402.169 50.4953 401.79C49.5737 401.411 48.7405 400.845 48.0478 400.128C46.5994 398.65 45.8743 396.756 45.8727 394.448C45.8727 392.25 46.5633 390.387 47.9444 388.859C48.5865 388.121 49.3826 387.534 50.2764 387.138C51.1703 386.742 52.1401 386.547 53.1174 386.567C55.2786 386.567 56.9915 387.326 58.256 388.844C59.5205 390.362 60.1528 392.269 60.1528 394.566C60.1528 394.857 60.1528 395.121 60.1232 395.355H48.1488C48.3131 396.892 48.8878 398.114 49.8732 399.019C50.8486 399.912 52.1284 400.397 53.45 400.375C55.2565 400.375 56.842 399.665 58.2067 398.245L59.6059 399.5C57.9226 401.387 55.8551 402.331 53.4032 402.331ZM48.1488 393.556H57.8693C57.7826 392.222 57.2765 390.95 56.4233 389.921C55.6021 388.956 54.4789 388.475 53.0534 388.477C52.434 388.469 51.8201 388.593 51.2517 388.839C50.6833 389.085 50.1733 389.449 49.7549 389.906C48.8212 390.905 48.2548 392.192 48.1488 393.556Z" fill="#3C3C3B"/>
<path d="M62.7122 401.981L68.6243 394.302L62.9339 386.887H65.5254L69.9915 392.725L74.4575 386.887H76.9652L71.2453 394.243L77.1993 401.981H74.5906L69.9102 395.82L65.2125 401.981H62.7122Z" fill="#3C3C3B"/>
<path d="M80.8352 401.981V386.887H83.0817V393.398H91.7774V386.887H94.0265V401.981H91.7774V395.384H83.0817V401.981H80.8352Z" fill="#3C3C3B"/>
<path d="M111.566 400.01C110.838 400.766 109.962 401.362 108.992 401.762C108.022 402.161 106.98 402.355 105.932 402.331C103.695 402.331 101.832 401.562 100.343 400.025C98.9053 398.526 98.1052 396.528 98.1107 394.45C98.1163 392.373 98.9269 390.379 100.372 388.888C101.861 387.405 103.876 386.57 105.978 386.568C108.08 386.565 110.097 387.394 111.59 388.873C113.038 390.367 113.845 392.367 113.84 394.447C113.835 396.527 113.018 398.523 111.563 400.01H111.566ZM105.991 400.318C106.738 400.34 107.481 400.2 108.168 399.908C108.856 399.616 109.472 399.178 109.974 398.625C111.021 397.485 111.581 395.982 111.536 394.435C111.569 392.884 110.986 391.383 109.915 390.261C109.412 389.706 108.797 389.265 108.11 388.967C107.423 388.67 106.68 388.523 105.932 388.536C105.186 388.513 104.444 388.654 103.758 388.949C103.073 389.245 102.46 389.686 101.963 390.244C100.929 391.389 100.375 392.89 100.416 394.433C100.381 395.978 100.958 397.475 102.023 398.595C102.523 399.149 103.136 399.589 103.82 399.887C104.505 400.184 105.245 400.331 105.991 400.318Z" fill="#3C3C3B"/>
<path d="M117.167 402.215C116.557 402.208 115.95 402.125 115.359 401.969L115.62 400.042C115.969 400.16 116.333 400.229 116.702 400.246C117.058 400.257 117.414 400.203 117.751 400.086C118.121 399.892 118.429 399.599 118.64 399.239C119.014 398.647 119.265 397.987 119.379 397.297C119.601 396.12 119.753 394.931 119.833 393.736C119.957 392.198 120.021 390.33 120.022 388.132V386.875H130.703V401.969H128.457V388.874H122.158V389.224C122.174 391.183 122.086 393.141 121.894 395.091C121.779 396.372 121.56 397.641 121.239 398.886C121.044 399.672 120.669 400.402 120.143 401.018C119.78 401.454 119.315 401.793 118.788 402.004C118.262 402.159 117.715 402.231 117.167 402.215Z" fill="#3C3C3B"/>
<path d="M148.248 400.01C147.521 400.766 146.645 401.362 145.675 401.762C144.706 402.161 143.664 402.355 142.616 402.331C140.378 402.331 138.515 401.562 137.027 400.025C135.59 398.526 134.79 396.528 134.795 394.451C134.801 392.373 135.611 390.38 137.056 388.888C138.546 387.404 140.561 386.569 142.664 386.566C144.766 386.564 146.784 387.393 148.277 388.874C149.723 390.368 150.529 392.368 150.523 394.448C150.518 396.528 149.701 398.523 148.248 400.01ZM142.673 400.318C143.42 400.34 144.162 400.2 144.85 399.908C145.538 399.616 146.154 399.178 146.656 398.625C147.673 397.468 148.228 395.978 148.218 394.438C148.207 392.898 147.631 391.416 146.6 390.273C146.097 389.719 145.481 389.278 144.794 388.98C144.107 388.683 143.365 388.536 142.616 388.548C141.87 388.526 141.128 388.667 140.442 388.962C139.756 389.257 139.143 389.699 138.645 390.256C137.612 391.402 137.058 392.902 137.098 394.445C137.064 395.99 137.641 397.487 138.704 398.608C139.206 399.159 139.819 399.597 140.504 399.892C141.188 400.187 141.928 400.332 142.673 400.318Z" fill="#3C3C3B"/>
<path d="M154.581 401.981V386.887H164.823V388.873H156.827V401.981H154.581Z" fill="#3C3C3B"/>
<path d="M168.092 401.981V386.887H170.339V398.827L179.298 386.887H181.488V401.981H179.239V390.042L170.25 401.981H168.092Z" fill="#3C3C3B"/>
<path d="M186.506 401.981V386.887H188.753V398.827L197.714 386.887H199.902V401.981H197.655V390.042L188.666 401.981H186.506Z" fill="#3C3C3B"/>
<path d="M10.9422 429.424V427.071H19.0541V429.437L10.9422 429.424Z" fill="#3C3C3B"/>
<path d="M32.2158 437.014V421.92H45.2889V437.014H43.0423V423.907H34.4624V437.014H32.2158Z" fill="#3C3C3B"/>
<path d="M50.3092 441.687V421.92H52.5558V424.956C54.0733 422.719 55.9996 421.6 58.3349 421.6C59.2779 421.595 60.212 421.783 61.0799 422.152C61.9478 422.521 62.7312 423.064 63.3823 423.746C64.8225 425.176 65.5427 427.088 65.5427 429.483C65.5427 431.836 64.8225 433.734 63.3823 435.176C61.942 436.618 60.2596 437.339 58.3349 437.337C55.9602 437.337 54.0338 436.269 52.5558 434.134V441.697L50.3092 441.687ZM57.926 435.321C58.6348 435.339 59.3393 435.206 59.9931 434.932C60.647 434.657 61.2353 434.248 61.7195 433.729C62.7311 432.67 63.237 431.245 63.237 429.454C63.237 427.721 62.7213 426.314 61.69 425.235C61.2121 424.715 60.6297 424.302 59.981 424.023C59.3323 423.744 58.632 423.605 57.926 423.616C57.2084 423.614 56.4983 423.761 55.8403 424.047C55.1823 424.333 54.5907 424.753 54.1028 425.279C53.014 426.388 52.4696 427.79 52.4696 429.483C52.4696 431.177 53.014 432.574 54.1028 433.673C54.5928 434.195 55.1852 434.611 55.8429 434.895C56.5006 435.179 57.2097 435.324 57.926 435.321Z" fill="#3C3C3B"/>
<path d="M74.1816 437.337C72.7558 437.372 71.3592 436.93 70.2131 436.081C69.103 435.246 68.5479 434.078 68.5479 432.576C68.5479 431.002 69.1317 429.787 70.2994 428.929C71.467 428.071 73.0329 427.643 74.997 427.643C76.5564 427.643 78.1083 427.859 79.6084 428.286V427.81C79.6084 426.488 79.2192 425.475 78.4408 424.772C77.6623 424.068 76.5637 423.719 75.1448 423.722C73.5575 423.746 71.9944 424.115 70.5629 424.801L69.8904 422.963C71.6042 422.142 73.4762 421.703 75.3763 421.679C77.5113 421.679 79.1363 422.233 80.2513 423.342C81.3007 424.392 81.8262 425.871 81.8279 427.778V437.002H79.6109V434.755C78.2675 436.476 76.4578 437.337 74.1816 437.337ZM74.6176 435.526C75.9001 435.565 77.1572 435.163 78.1796 434.387C78.6391 434.053 79.0114 433.614 79.2652 433.105C79.519 432.597 79.6469 432.035 79.638 431.467V430.067C78.2068 429.646 76.723 429.429 75.231 429.424C73.8499 429.424 72.7701 429.702 71.9917 430.257C71.6218 430.505 71.3207 430.842 71.1165 431.238C70.9124 431.633 70.8117 432.074 70.8241 432.52C70.813 432.948 70.9082 433.372 71.1012 433.754C71.2942 434.137 71.579 434.465 71.9301 434.71C72.7117 435.271 73.6564 435.558 74.6176 435.526Z" fill="#3C3C3B"/>
<path d="M86.5847 437.014V421.92H93.8787C95.3764 421.92 96.5728 422.261 97.4678 422.943C97.8981 423.257 98.2454 423.671 98.4793 424.149C98.7133 424.628 98.8269 425.156 98.8103 425.688C98.8103 427.303 97.9744 428.461 96.3026 429.16C98.5196 429.765 99.6281 431.011 99.6281 432.899C99.6481 433.483 99.5237 434.063 99.2658 434.587C99.008 435.112 98.6248 435.565 98.1501 435.905C97.1648 436.645 95.8321 437.014 94.1521 437.014H86.5847ZM88.8312 428.401H93.4697C94.4058 428.401 95.1498 428.194 95.704 427.776C95.9782 427.566 96.1972 427.293 96.3419 426.98C96.4866 426.667 96.5526 426.323 96.5342 425.979C96.5414 425.676 96.4734 425.376 96.3362 425.106C96.1991 424.836 95.9971 424.604 95.7484 424.431C95.2212 424.042 94.4822 423.847 93.5313 423.847H88.8312V428.401ZM88.8312 435.087H93.854C94.9248 435.087 95.7713 434.864 96.3937 434.417C96.694 434.209 96.9369 433.929 97.1001 433.603C97.2633 433.276 97.3415 432.914 97.3274 432.549C97.3352 432.199 97.2476 431.854 97.074 431.55C96.9004 431.246 96.6474 430.995 96.342 430.824C95.6851 430.415 94.7564 430.21 93.556 430.21H88.8312V435.087Z" fill="#3C3C3B"/>
<path d="M103.685 437.014V421.92H105.924V433.862L114.884 421.92H117.074V437.014H114.825V425.075L105.838 437.014H103.685Z" fill="#3C3C3B"/>
<path d="M121.37 437.249C120.759 437.241 120.152 437.158 119.562 437.002L119.823 435.075C120.171 435.194 120.534 435.263 120.902 435.28C121.259 435.292 121.616 435.238 121.954 435.119C122.323 434.926 122.631 434.633 122.843 434.274C123.215 433.682 123.466 433.022 123.582 432.332C123.801 431.154 123.952 429.964 124.033 428.769C124.157 427.233 124.221 425.365 124.222 423.165V421.908H134.903V437.002H132.657V423.894H126.37V424.244C126.386 426.203 126.298 428.162 126.107 430.112C125.991 431.393 125.772 432.662 125.452 433.907C125.257 434.693 124.882 435.422 124.358 436.039C123.995 436.475 123.528 436.814 123.001 437.024C122.472 437.185 121.922 437.261 121.37 437.249Z" fill="#3C3C3B"/>
<path d="M144.424 437.337C142.999 437.372 141.602 436.93 140.456 436.081C139.347 435.246 138.793 434.078 138.793 432.576C138.793 431.002 139.376 429.787 140.542 428.929C141.708 428.071 143.275 427.643 145.242 427.643C146.802 427.643 148.354 427.859 149.854 428.286V427.81C149.854 426.488 149.464 425.475 148.686 424.772C147.908 424.068 146.808 423.719 145.388 423.722C143.8 423.747 142.237 424.115 140.806 424.801L140.136 422.963C141.849 422.141 143.721 421.703 145.622 421.679C147.756 421.679 149.381 422.233 150.494 423.342C151.547 424.392 152.072 425.871 152.071 427.778V437.002H149.854V434.755C148.512 436.476 146.702 437.337 144.424 437.337ZM144.863 435.526C146.145 435.564 147.401 435.163 148.422 434.387C148.882 434.053 149.254 433.614 149.508 433.105C149.762 432.597 149.89 432.035 149.881 431.467V430.067C148.45 429.646 146.967 429.429 145.476 429.424C144.095 429.424 143.015 429.702 142.237 430.257C141.867 430.505 141.566 430.842 141.362 431.238C141.158 431.633 141.057 432.074 141.069 432.52C141.057 432.946 141.151 433.369 141.342 433.751C141.533 434.133 141.815 434.461 142.163 434.708C142.948 435.272 143.897 435.559 144.863 435.526Z" fill="#3C3C3B"/>
<path d="M628.775 276.443H643.368V296.88H638.873V280.502H632.978V282.05C632.978 286.04 632.74 289.135 632.263 291.333C631.787 293.531 631.092 295.049 630.177 295.887C629.262 296.725 627.988 297.144 626.354 297.144C625.558 297.157 624.763 297.068 623.989 296.88L624.282 293.184C624.514 293.22 624.747 293.24 624.982 293.243C625.552 293.268 626.117 293.12 626.603 292.819C627.02 292.538 627.409 291.969 627.77 291.111C628.132 290.254 628.389 288.974 628.544 287.272C628.698 285.568 628.775 283.374 628.775 280.689V276.443Z" fill="#3C3C3B"/>
<path d="M665.371 297.23C662.804 297.23 660.631 296.427 658.851 294.822C657.07 293.217 655.976 291.148 655.567 288.617H652.764V296.88H648.27V276.443H652.764V284.575H655.596C655.963 282.213 657.145 280.054 658.937 278.473C660.743 276.88 662.908 276.082 665.43 276.081C668.311 276.081 670.685 277.093 672.552 279.117C674.419 281.141 675.353 283.652 675.353 286.65C675.353 289.627 674.414 292.132 672.537 294.166C670.66 296.2 668.271 297.221 665.371 297.23ZM665.43 293.144C666.165 293.159 666.893 293.001 667.555 292.681C668.217 292.361 668.794 291.888 669.239 291.303C670.224 290.077 670.717 288.53 670.717 286.662C670.717 284.831 670.216 283.298 669.214 282.064C668.764 281.475 668.183 281.001 667.516 280.679C666.849 280.356 666.116 280.195 665.376 280.208C664.643 280.193 663.916 280.35 663.254 280.667C662.593 280.984 662.015 281.453 661.568 282.034C660.582 283.249 660.09 284.791 660.09 286.662C660.09 288.491 660.582 290.028 661.568 291.273C662.017 291.869 662.601 292.35 663.273 292.675C663.945 293 664.684 293.161 665.43 293.144Z" fill="#3C3C3B"/>
<path d="M677.19 301.143V292.821H679.117C679.925 290.941 680.504 288.971 680.841 286.953C681.191 284.89 681.366 282.185 681.366 278.838V276.443H696.22V292.821H698.683L698.099 301.143H694.333V296.88H681.538L681.247 301.143H677.19ZM691.724 280.502H685.684V282.574C685.684 286.428 685.071 289.844 683.844 292.821H691.727L691.724 280.502Z" fill="#3C3C3B"/>
<path d="M719.42 276.443V296.88H714.986V283.479L706.056 296.88H701.812V276.443H706.246V289.844L715.234 276.443H719.42Z" fill="#3C3C3B"/>
<path d="M636.099 324.323V321.957H644.213V324.323H636.099Z" fill="#3C3C3B"/>
<path d="M657.373 331.913V316.819H670.448V331.913H668.202V318.805H659.622V331.913H657.373Z" fill="#3C3C3B"/>
<path d="M682.267 332.263C681.239 332.283 680.218 332.088 679.27 331.688C678.323 331.289 677.47 330.694 676.767 329.944C675.333 328.447 674.533 326.454 674.533 324.382C674.533 322.309 675.333 320.316 676.767 318.82C677.469 318.068 678.322 317.473 679.27 317.073C680.218 316.673 681.239 316.477 682.267 316.498C684.601 316.498 686.614 317.394 688.307 319.184L686.879 320.702C685.478 319.224 683.931 318.484 682.238 318.484C681.512 318.473 680.793 318.621 680.131 318.915C679.468 319.21 678.877 319.646 678.4 320.192C677.356 321.334 676.797 322.836 676.838 324.382C676.802 325.923 677.374 327.418 678.429 328.541C678.927 329.094 679.538 329.532 680.22 329.827C680.902 330.121 681.64 330.265 682.383 330.249C683.999 330.249 685.516 329.49 686.935 327.972L688.413 329.345C686.671 331.292 684.622 332.264 682.267 332.263Z" fill="#3C3C3B"/>
<path d="M692.131 331.913V316.819H694.377V328.761L703.336 316.819H705.526V331.913H703.29V319.973L694.301 331.913H692.131Z" fill="#3C3C3B"/>
<path d="M709.175 331.913L715.099 324.236L709.406 316.819H711.975L716.439 322.659L720.905 316.819H723.415L717.695 324.177L723.649 331.913H721.05L716.382 325.752L711.682 331.913H709.175Z" fill="#3C3C3B"/>
<path d="M739.816 329.944C739.088 330.699 738.212 331.295 737.242 331.694C736.273 332.093 735.231 332.287 734.183 332.263C731.946 332.263 730.084 331.494 728.596 329.956C727.158 328.458 726.357 326.46 726.362 324.382C726.367 322.305 727.177 320.311 728.623 318.82C730.113 317.336 732.129 316.501 734.231 316.499C736.334 316.496 738.352 317.325 739.846 318.805C741.292 320.3 742.098 322.3 742.092 324.38C742.087 326.46 741.27 328.456 739.816 329.944ZM734.242 330.249C734.988 330.272 735.731 330.132 736.419 329.839C737.106 329.547 737.723 329.109 738.225 328.556C739.268 327.421 739.828 325.923 739.787 324.382C739.82 322.83 739.237 321.329 738.166 320.207C737.663 319.652 737.048 319.211 736.361 318.914C735.674 318.616 734.931 318.469 734.183 318.482C733.437 318.46 732.695 318.601 732.009 318.896C731.324 319.191 730.711 319.633 730.214 320.19C729.179 321.335 728.625 322.836 728.667 324.379C728.632 325.924 729.209 327.419 730.273 328.539C730.775 329.091 731.388 329.529 732.073 329.824C732.757 330.119 733.497 330.264 734.242 330.249Z" fill="#3C3C3B"/>
<path d="M745.413 332.147C744.803 332.139 744.195 332.056 743.605 331.9L743.866 329.973C744.215 330.093 744.579 330.162 744.948 330.178C745.304 330.19 745.66 330.136 745.997 330.018C746.366 329.824 746.675 329.531 746.889 329.172C747.26 328.58 747.511 327.92 747.628 327.23C747.847 326.052 747.998 324.863 748.078 323.667C748.207 322.131 748.27 320.263 748.268 318.063V316.806H758.962V331.9H756.715V318.793H750.411V319.143C750.428 321.102 750.34 323.06 750.148 325.01C750.033 326.291 749.814 327.56 749.492 328.805C749.297 329.591 748.923 330.32 748.399 330.937C748.036 331.374 747.569 331.713 747.041 331.923C746.514 332.083 745.964 332.159 745.413 332.147Z" fill="#3C3C3B"/>
<path d="M776.498 329.944C775.771 330.699 774.895 331.294 773.926 331.694C772.956 332.093 771.915 332.286 770.867 332.263C768.627 332.263 766.764 331.494 765.278 329.956C763.84 328.457 763.04 326.459 763.046 324.382C763.051 322.305 763.862 320.311 765.307 318.82C766.796 317.335 768.812 316.501 770.915 316.498C773.017 316.495 775.035 317.324 776.528 318.805C777.974 320.3 778.78 322.3 778.774 324.38C778.769 326.461 777.952 328.457 776.498 329.944ZM770.924 330.249C771.671 330.272 772.414 330.132 773.102 329.84C773.79 329.548 774.407 329.11 774.909 328.556C775.952 327.42 776.511 325.923 776.469 324.382C776.502 322.831 775.92 321.33 774.85 320.207C774.348 319.652 773.732 319.211 773.045 318.914C772.358 318.616 771.616 318.469 770.867 318.482C770.121 318.46 769.379 318.601 768.693 318.896C768.007 319.191 767.393 319.633 766.896 320.19C765.863 321.336 765.31 322.836 765.352 324.379C765.317 325.923 765.893 327.418 766.955 328.539C767.457 329.091 768.07 329.528 768.755 329.823C769.439 330.118 770.179 330.264 770.924 330.249Z" fill="#3C3C3B"/>
<path d="M782.832 331.913V316.819H793.074V318.805H785.073V331.913H782.832Z" fill="#3C3C3B"/>
<path d="M796.343 331.913V316.819H798.59V328.761L807.549 316.819H809.739V331.913H807.49V319.973L798.501 331.913H796.343Z" fill="#3C3C3B"/>
<path d="M813.414 331.913L818.026 326.075C816.918 325.846 815.906 325.285 815.124 324.468C814.751 324.073 814.46 323.609 814.266 323.101C814.073 322.594 813.982 322.053 813.998 321.511C813.977 320.866 814.103 320.225 814.366 319.636C814.629 319.047 815.022 318.525 815.515 318.11C816.527 317.242 817.923 316.809 819.703 316.809H826.793V331.903H824.546V326.415H820.373C820.197 326.648 819.595 327.446 818.565 328.808C817.535 330.17 816.747 331.201 816.2 331.903L813.414 331.913ZM819.866 324.52H824.546V318.797H819.807C818.698 318.797 817.828 319.044 817.195 319.537C816.884 319.779 816.636 320.092 816.471 320.45C816.306 320.808 816.229 321.201 816.247 321.594C816.232 322.004 816.315 322.412 816.49 322.783C816.665 323.154 816.926 323.477 817.252 323.726C817.925 324.258 818.797 324.525 819.866 324.527V324.52Z" fill="#3C3C3B"/>
<path d="M636.099 359.356V356.992H644.213V359.356H636.099Z" fill="#3C3C3B"/>
<path d="M657.373 366.941V351.847H659.622V360.546L667.879 351.847H670.653L664.349 358.385L670.827 366.941H668.172L662.802 360.021L659.622 363.291V366.941H657.373Z" fill="#3C3C3B"/>
<path d="M686.44 364.969C685.713 365.725 684.836 366.322 683.867 366.721C682.897 367.121 681.855 367.315 680.806 367.291C678.57 367.291 676.707 366.522 675.22 364.984C673.781 363.486 672.98 361.487 672.985 359.409C672.99 357.332 673.801 355.337 675.247 353.845C676.737 352.361 678.753 351.527 680.855 351.524C682.958 351.522 684.976 352.351 686.47 353.831C687.916 355.326 688.722 357.326 688.716 359.406C688.711 361.486 687.894 363.482 686.44 364.969ZM680.866 365.275C681.612 365.297 682.355 365.158 683.043 364.865C683.73 364.573 684.346 364.135 684.849 363.582C685.866 362.426 686.422 360.936 686.411 359.396C686.4 357.856 685.823 356.374 684.79 355.233C684.287 354.678 683.672 354.237 682.985 353.939C682.298 353.642 681.555 353.495 680.806 353.508C680.061 353.486 679.319 353.627 678.633 353.922C677.948 354.217 677.335 354.659 676.838 355.216C675.803 356.361 675.249 357.862 675.291 359.405C675.256 360.949 675.833 362.445 676.897 363.565C677.399 364.119 678.013 364.559 678.699 364.855C679.385 365.151 680.126 365.297 680.873 365.282L680.866 365.275Z" fill="#3C3C3B"/>
<path d="M692.771 366.941V351.847H694.914L700.548 359.787L706.179 351.847H708.339V366.941H706.063V355.437L700.489 363.077L694.973 355.437V366.941H692.771Z" fill="#3C3C3B"/>
<path d="M713.345 366.941V351.847H715.476L721.11 359.787L726.741 351.847H728.908V366.941H726.632V355.437L721.058 363.077L715.542 355.437V366.941H713.345Z" fill="#3C3C3B"/>
<path d="M736.254 371.707C735.143 371.7 734.048 371.44 733.052 370.948L733.811 369.166C734.543 369.539 735.354 369.729 736.175 369.721C736.809 369.739 737.426 369.514 737.9 369.092C738.366 368.673 738.823 367.939 739.269 366.889L732.411 351.857H734.892L740.38 364.44L745.223 351.857H747.618L741.275 367.434C740.632 368.972 739.922 370.067 739.144 370.719C738.331 371.386 737.305 371.737 736.254 371.707Z" fill="#3C3C3B"/>
<path d="M751.167 366.941V351.847H753.414V358.358H762.11V351.847H764.359V366.941H762.11V360.341H753.414V366.941H751.167Z" fill="#3C3C3B"/>
<path d="M769.377 366.941V351.847H771.623V363.787L780.582 351.847H782.772V366.941H780.526V354.999L771.537 366.941H769.377Z" fill="#3C3C3B"/>
<path d="M787.783 366.941V351.847H790.03V360.546L798.289 351.847H801.06L794.757 358.385L801.235 366.941H798.58L793.21 360.021L790.03 363.291V366.941H787.783Z" fill="#3C3C3B"/>
<path d="M808.832 367.269C807.406 367.303 806.01 366.861 804.864 366.012C803.755 365.176 803.201 364.008 803.201 362.51C803.201 360.933 803.784 359.716 804.95 358.86C806.116 358.004 807.683 357.576 809.65 357.576C811.209 357.577 812.761 357.793 814.262 358.217V357.751C814.262 356.427 813.872 355.415 813.094 354.715C812.315 354.015 811.216 353.665 809.795 353.663C808.208 353.688 806.645 354.056 805.214 354.742L804.534 352.894C806.248 352.074 808.12 351.636 810.02 351.61C812.155 351.61 813.779 352.165 814.892 353.274C815.943 354.325 816.469 355.804 816.469 357.709V366.941H814.252V364.691C812.917 366.408 811.11 367.267 808.832 367.269ZM809.271 365.457C810.552 365.496 811.809 365.094 812.83 364.319C813.289 363.985 813.661 363.546 813.915 363.038C814.169 362.53 814.297 361.969 814.289 361.401V359.999C812.858 359.577 811.375 359.361 809.884 359.356C808.503 359.356 807.423 359.633 806.645 360.189C806.275 360.436 805.974 360.774 805.77 361.169C805.565 361.565 805.465 362.006 805.477 362.451C805.465 362.878 805.559 363.301 805.75 363.683C805.941 364.065 806.223 364.395 806.571 364.642C807.356 365.206 808.305 365.494 809.271 365.462V365.457Z" fill="#3C3C3B"/>
<path d="M834.252 370.714V366.941H821.235V351.847H823.482V364.969H831.946V351.862H834.193V364.969H836.469L836.119 370.721L834.252 370.714Z" fill="#3C3C3B"/>
<path d="M839.563 366.941V351.847H841.809V363.787L850.768 351.847H852.956V366.941H850.709V354.999L841.73 366.941H839.563Z" fill="#3C3C3B"/>
<path d="M856.634 366.941L861.245 361.1C860.137 360.872 859.124 360.313 858.341 359.496C857.591 358.698 857.187 357.634 857.218 356.539C857.196 355.894 857.322 355.253 857.585 354.664C857.848 354.074 858.241 353.553 858.735 353.138C859.747 352.272 861.138 351.839 862.908 351.839H870V366.941H867.753V361.45H863.58C863.405 361.685 862.801 362.484 861.77 363.846C860.739 365.208 859.951 366.239 859.408 366.941H856.634ZM863.083 359.548H867.763V353.826H863.036C861.926 353.826 861.055 354.072 860.422 354.565C860.112 354.808 859.864 355.122 859.699 355.48C859.534 355.838 859.457 356.231 859.474 356.625C859.46 357.035 859.544 357.442 859.719 357.812C859.894 358.183 860.156 358.506 860.482 358.754C861.145 359.293 862.012 359.562 863.083 359.56V359.548Z" fill="#3C3C3B"/>
<path d="M407.972 95.4811L393.416 77.9153L378.865 95.4811C378.436 95.9987 378.23 96.6649 378.29 97.3343C378.351 98.0037 378.673 98.6221 379.188 99.0544C379.442 99.2677 379.736 99.4285 380.052 99.5276C380.369 99.6267 380.702 99.6622 381.033 99.632C381.363 99.6017 381.684 99.5064 381.978 99.3514C382.271 99.1965 382.531 98.985 382.742 98.7291L390.97 88.8028V203.203C391.791 203.183 392.612 203.173 393.433 203.173C394.254 203.173 395.076 203.183 395.897 203.203V88.8028L404.124 98.7291C404.336 98.985 404.595 99.1965 404.889 99.3514C405.182 99.5064 405.503 99.6017 405.834 99.632C406.164 99.6622 406.497 99.6267 406.814 99.5276C407.131 99.4285 407.425 99.2677 407.679 99.0544C408.189 98.6179 408.506 97.9975 408.561 97.3282C408.616 96.6589 408.404 95.995 407.972 95.4811Z" fill="#7F8080"/>
<path d="M357.187 318.847L347.807 348.123L359.5 356.62L393.372 332.194L427.236 356.62L438.929 348.123L426.332 308.802L459.865 283.646C457.567 276.746 457.606 276.872 455.335 270.05C422.326 276.788 392.817 289.25 371.674 305.485C365.994 309.84 361.163 314.332 357.187 318.847Z" fill="#3D3D3B"/>
<path d="M413.793 269.942H413.322L400.471 230.416H386.27L373.418 269.939H331.44C329.127 276.877 329.186 276.699 326.876 283.636L354.931 304.687C358.029 301.737 361.281 298.953 364.673 296.347C378.261 285.916 395.01 276.96 413.793 269.942Z" fill="#E8511D"/>
</g>
<defs>
<clipPath id="clip0">
<rect width="870" height="574" fill="white"/>
</clipPath>
</defs>
</svg>
